<svg width="112" height="85" viewBox="0 0 112 85" fill="none" xmlns="http://www.w3.org/2000/svg">
<path opacity="0.15" d="M37.5007 27.1299V56.7005H9.77203L3.77775 36.038C3.72722 35.8639 3.7179 35.6804 3.75051 35.5021C3.78313 35.3237 3.85679 35.1554 3.96567 35.0105C4.07455 34.8655 4.21566 34.7479 4.37785 34.6669C4.54003 34.5859 4.71884 34.5438 4.90013 34.5438H8.26894C8.45033 34.5438 8.62925 34.586 8.79151 34.667C8.95377 34.7481 9.09493 34.8659 9.20381 35.0109L15.281 43.1123H22.2882L19.5684 25.0252C19.5456 24.8734 19.5529 24.7186 19.5899 24.5697C19.6269 24.4207 19.6929 24.2805 19.7841 24.1571C19.8752 24.0336 19.9898 23.9293 20.1213 23.8502C20.2528 23.771 20.3986 23.7185 20.5504 23.6957C20.6079 23.6871 20.666 23.6828 20.7242 23.6828H23.6586V23.4623C23.6585 23.3088 23.6887 23.1568 23.7474 23.015C23.8061 22.8731 23.8922 22.7443 24.0007 22.6357C24.1092 22.5272 24.238 22.4411 24.3798 22.3823C24.5216 22.3236 24.6736 22.2933 24.8271 22.2933H31.9538C32.1072 22.2933 32.2592 22.3235 32.401 22.3822C32.5428 22.4409 32.6717 22.527 32.7802 22.6355C32.8888 22.7441 32.9749 22.8729 33.0336 23.0147C33.0923 23.1565 33.1225 23.3085 33.1225 23.462V23.6825H35.7598C36.0229 23.6825 36.2783 23.7713 36.4847 23.9345C36.6911 24.0977 36.8363 24.3258 36.8969 24.5818L37.5007 27.1299ZM72.546 61.912L73.6458 37.5624V36.52C73.6458 36.2101 73.7689 35.9129 73.988 35.6938C74.2072 35.4746 74.5044 35.3515 74.8143 35.3514H76.3272C76.4807 35.3514 76.6327 35.3816 76.7745 35.4404C76.9163 35.4991 77.0451 35.5852 77.1536 35.6937C77.2622 35.8022 77.3483 35.931 77.407 36.0728C77.4657 36.2146 77.496 36.3666 77.496 36.52V37.5623H77.5464C77.8564 37.5623 78.1536 37.6855 78.3727 37.9047C78.5918 38.1239 78.7149 38.4211 78.7149 38.731V44.812H79.7451V32.7291C79.7451 32.5756 79.7753 32.4236 79.8341 32.2818C79.8929 32.14 79.979 32.0112 80.0876 31.9027C80.1961 31.7942 80.325 31.7081 80.4668 31.6494C80.6086 31.5907 80.7606 31.5605 80.9141 31.5606H81.8302V26.6053C83.0526 25.0595 84.3021 25.0595 85.5788 26.6053V31.5606H87.1009C87.4108 31.5606 87.708 31.6837 87.9271 31.9029C88.1463 32.122 88.2694 32.4192 88.2694 32.7292V36.012H89.6544L92.6826 20.6433C92.7348 20.3776 92.8777 20.1382 93.0869 19.9662C93.296 19.7942 93.5584 19.7001 93.8292 19.7002H94.1198V19.0284C94.12 18.8446 94.1634 18.6635 94.2466 18.4997C94.3298 18.336 94.4504 18.1941 94.5987 18.0856C94.747 17.9772 94.9188 17.9053 95.1001 17.8756C95.2814 17.846 95.4671 17.8596 95.6423 17.9152L100.241 19.3777C100.518 19.4659 100.752 19.6543 100.898 19.9059C101.044 20.1576 101.09 20.4545 101.029 20.7386L98.0398 34.5436L96.0679 43.3112L98.646 40.6788C98.7548 40.5678 98.8846 40.4796 99.0279 40.4193C99.1711 40.3591 99.325 40.328 99.4804 40.3279H100.336C100.498 40.328 100.658 40.3644 100.803 40.4344C100.949 40.5045 101.077 40.6063 101.179 40.7325C101.28 40.8587 101.351 41.006 101.388 41.1635C101.425 41.321 101.425 41.4847 101.39 41.6426L98.0403 56.7005H72.546V61.912Z" fill="#BBBBBB"/>
<path d="M49.5822 84.8851C22.1987 84.8851 0 77.8754 0 66.0831C0 54.2908 22.1987 44.7314 49.5822 44.7314C76.9658 44.7314 105.533 54.2909 105.533 66.0832C105.533 77.8754 76.9656 84.8851 49.5822 84.8851ZM28.4396 77.1246C29.8867 78.4003 31.7114 79.0381 33.9136 79.038C37.4775 79.038 33.56 76.8107 40.1374 76.8107C44.5107 76.8107 41.8783 76.2444 32.2402 75.1118C32.19 75.106 32.1392 75.1131 32.0926 75.1325L28.5193 76.6362C28.4737 76.6554 28.4338 76.6858 28.4032 76.7247C28.3726 76.7635 28.3524 76.8095 28.3444 76.8583C28.3364 76.9072 28.341 76.9572 28.3576 77.0038C28.3743 77.0503 28.4025 77.0919 28.4396 77.1246ZM60.8668 57.499C61.7521 58.2198 62.8507 58.5802 64.1624 58.5802C66.4004 58.5802 63.9403 57.1814 68.0709 57.1814C70.8132 57.1814 69.1694 56.8269 63.1397 56.1178C63.0895 56.1119 63.0387 56.1191 62.9921 56.1387L60.9375 57.003C60.891 57.0226 60.8504 57.0539 60.8197 57.0938C60.7889 57.1338 60.7689 57.181 60.7618 57.2309C60.7546 57.2808 60.7605 57.3317 60.7789 57.3787C60.7972 57.4256 60.8274 57.467 60.8665 57.4989L60.8668 57.499ZM101.73 64.6034C101.752 64.5817 101.77 64.5567 101.783 64.5295C101.801 64.4952 101.811 64.4579 101.814 64.4196C101.817 64.3813 101.812 64.3429 101.8 64.3064C101.788 64.27 101.769 64.2363 101.744 64.2072C101.719 64.1781 101.688 64.1543 101.654 64.137L99.7125 63.1586C99.6593 63.1319 99.5991 63.1221 99.5402 63.1304C93.9577 63.9171 92.438 64.3104 94.9812 64.3104C98.8165 64.3104 96.5321 65.8657 98.6103 65.8657C99.858 65.8654 100.898 65.4446 101.73 64.6034V64.6034ZM21.2585 52.159C21.2983 52.1292 21.3298 52.0897 21.35 52.0443C21.3703 51.9988 21.3786 51.949 21.3742 51.8995C21.3699 51.8499 21.3529 51.8024 21.325 51.7612C21.2971 51.7201 21.2591 51.6867 21.2147 51.6644L20.654 51.3818C20.6007 51.3551 20.5406 51.3452 20.4816 51.3537C18.1408 51.6843 17.5093 51.8496 18.5872 51.8496C20.2246 51.8496 19.2493 52.5136 20.1366 52.5136C20.5395 52.5231 20.9342 52.3983 21.2585 52.159ZM82.0875 57.7889C82.5509 58.6879 83.1362 59.1374 83.8433 59.1374C84.9806 59.1374 83.7308 57.5872 85.8295 57.5872C87.2055 57.5872 86.4084 57.2041 83.4384 56.4379C83.3913 56.4257 83.3418 56.4256 83.2946 56.4374C83.2473 56.4492 83.2038 56.4726 83.1679 56.5055L82.1497 57.4398C82.1025 57.4831 82.0709 57.5408 82.0596 57.6039C82.0484 57.6669 82.0582 57.732 82.0875 57.7889Z" fill="#E9E9E9"/>
<path d="M17.779 14.3185V14.3207H12.408V14.3007C11.8997 14.2333 11.4316 13.9886 11.086 13.6098C10.7405 13.2311 10.5398 12.7424 10.5193 12.2301C10.4988 11.7178 10.6598 11.2148 10.974 10.8096C11.2881 10.4044 11.7353 10.1231 12.2365 10.0153C12.3246 9.48283 12.6062 9.0016 13.0274 8.66406C13.4486 8.32651 13.9796 8.15645 14.5185 8.18651C15.0575 8.21656 15.5663 8.44463 15.9473 8.82692C16.3283 9.20921 16.5547 9.71877 16.583 10.2578C16.8688 10.0902 17.189 9.98987 17.5193 9.96448C17.8496 9.93908 18.1814 9.98926 18.4894 10.1112C18.7975 10.2332 19.0737 10.4237 19.2971 10.6683C19.5205 10.9129 19.6852 11.2052 19.7788 11.523C19.8724 11.8408 19.8924 12.1757 19.8373 12.5024C19.7821 12.8291 19.6533 13.1389 19.4605 13.4083C19.2677 13.6778 19.0161 13.8998 18.7248 14.0575C18.4334 14.2152 18.11 14.3044 17.779 14.3185Z" fill="#E9E9E9"/>
<path d="M110.304 27.7629V27.7642H106.947V27.752C106.63 27.7133 106.337 27.5632 106.121 27.3285C105.905 27.0939 105.779 26.7899 105.766 26.4709C105.753 26.152 105.854 25.8389 106.051 25.5875C106.247 25.3361 106.527 25.1629 106.84 25.0988C106.897 24.7684 107.074 24.4707 107.337 24.2621C107.6 24.0535 107.93 23.9484 108.265 23.9669C108.6 23.9854 108.916 24.1261 109.154 24.3624C109.392 24.5987 109.535 24.9141 109.556 25.2488C109.765 25.1297 110.001 25.0672 110.242 25.0676C110.598 25.0611 110.942 25.1959 111.199 25.4427C111.457 25.6894 111.606 26.0279 111.614 26.3841C111.622 26.7404 111.489 27.0854 111.243 27.3437C110.998 27.602 110.66 27.7526 110.304 27.7626V27.7629Z" fill="#E9E9E9"/>
<path d="M83.4241 3.79818L80.067 3.79959V3.78712C79.7502 3.74845 79.4574 3.59836 79.241 3.36369C79.0246 3.12901 78.8987 2.82504 78.8859 2.5061C78.873 2.18715 78.9739 1.87402 79.1707 1.62266C79.3674 1.3713 79.6471 1.19809 79.9598 1.13399C80.0176 0.803592 80.1946 0.505862 80.4572 0.297237C80.7198 0.0886125 81.0499 -0.0164071 81.3848 0.00208487C81.7197 0.0205768 82.0362 0.161295 82.2742 0.397567C82.5123 0.633839 82.6554 0.949242 82.6764 1.28399C82.8851 1.16481 83.1214 1.10234 83.3618 1.10278C83.718 1.09626 84.0624 1.2311 84.3195 1.47781C84.5767 1.72452 84.7257 2.06301 84.7339 2.41927C84.7421 2.77552 84.6089 3.12054 84.3635 3.37885C84.118 3.63717 83.7802 3.78777 83.424 3.79771L83.4241 3.79818Z" fill="#E9E9E9"/>
<path d="M69.1671 34.7759C67.3121 34.7759 65.8071 39.2525 65.8071 44.7759H69.1671C70.7871 44.7759 71.5955 44.7759 72.0971 44.2175C72.5971 43.6575 72.5105 42.9209 72.3371 41.4492C71.8738 37.5592 70.6305 34.7759 69.1671 34.7759Z" stroke="#BBBBBB" stroke-width="2"/>
<path d="M65.8073 44.8659V62.5192C65.8073 65.0375 65.8073 66.2975 65.0373 66.7942C63.779 67.6042 61.834 65.9042 60.8556 65.2875C60.0473 64.7775 59.644 64.5242 59.1956 64.5092C58.7106 64.4925 58.299 64.7375 57.4256 65.2875L54.2406 67.2959C53.3806 67.8375 52.9523 68.1092 52.474 68.1092C51.9956 68.1092 51.5656 67.8375 50.7073 67.2959L47.524 65.2875C46.714 64.7775 46.3106 64.5242 45.8623 64.5092C45.3773 64.4925 44.9656 64.7375 44.0923 65.2875C43.114 65.9042 41.169 67.6042 39.909 66.7942C39.1406 66.2975 39.1406 65.0392 39.1406 62.5192V44.8659C39.1406 40.1092 39.1406 37.7325 40.6056 36.2542C42.069 34.7759 44.4273 34.7759 49.1406 34.7759H69.1406M45.8073 41.4425H52.474H59.1406M49.1406 48.1092H45.8073" stroke="#BBBBBB" stroke-width="2" stroke-linecap="round" stroke-linejoin="round"/>
<path d="M56.6406 49.5677C55.2606 49.5677 54.1406 50.5477 54.1406 51.756C54.1406 52.9627 55.2606 53.9427 56.6406 53.9427C58.0206 53.9427 59.1406 54.9227 59.1406 56.131C59.1406 57.3377 58.0206 58.3177 56.6406 58.3177M56.6406 49.5677C57.729 49.5677 58.6556 50.176 58.999 51.026M56.6406 49.5677V48.1094M56.6406 58.3177C55.5523 58.3177 54.6256 57.7094 54.2823 56.8594M56.6406 58.3177V59.776" stroke="#BBBBBB" stroke-width="1.5" stroke-linecap="round"/>
</svg>
