<svg width="393" height="393" viewBox="0 0 393 393" fill="none" xmlns="http://www.w3.org/2000/svg">
<g opacity="0.15">
<path d="M98.2452 14.7368C106.384 14.7368 112.982 8.13862 112.982 0H103.157C103.157 2.7096 100.953 4.91225 98.2452 4.91225C95.5376 4.91225 93.3329 2.7096 93.3329 0H83.5084C83.5084 8.13862 90.1066 14.7368 98.2452 14.7368Z" fill="#F8D89F"/>
<path d="M98.2452 34.3861C117.236 34.3861 132.631 18.991 132.631 0H122.807C122.807 6.56087 120.252 12.7288 115.611 17.3679C110.972 22.0071 104.804 24.5635 98.2433 24.5635C91.6825 24.5635 85.5146 22.0091 80.8755 17.3679C76.2364 12.7288 73.68 6.56087 73.68 0H63.8555C63.8555 18.991 79.2505 34.3861 98.2413 34.3861H98.2452Z" fill="#F8D89F"/>
<path d="M181.754 98.2461C181.754 106.385 188.352 112.983 196.491 112.983C204.629 112.983 211.227 106.385 211.227 98.2461C211.227 90.1074 204.629 83.5092 196.491 83.5092C188.352 83.5092 181.754 90.1074 181.754 98.2461ZM201.401 98.2461C201.401 100.954 199.198 103.158 196.489 103.158C193.779 103.158 191.576 100.954 191.576 98.2461C191.576 95.5385 193.779 93.3338 196.489 93.3338C199.198 93.3338 201.401 95.5385 201.401 98.2461Z" fill="#F8D89F"/>
<path d="M162.105 98.2461C162.105 117.237 177.5 132.632 196.49 132.632C215.481 132.632 230.876 117.237 230.876 98.2461C230.876 79.2551 215.481 63.86 196.49 63.86C177.5 63.86 162.105 79.2551 162.105 98.2461ZM213.858 80.8782C218.497 85.5173 221.054 91.6852 221.054 98.2461C221.054 104.807 218.499 110.975 213.858 115.614C209.219 120.253 203.051 122.81 196.49 122.81C189.93 122.81 183.762 120.255 179.123 115.614C174.483 110.975 171.927 104.807 171.927 98.2461C171.927 91.6852 174.482 85.5173 179.123 80.8782C183.762 76.239 189.93 73.6826 196.49 73.6826C203.051 73.6826 209.219 76.237 213.858 80.8782Z" fill="#F8D89F"/>
<path d="M294.735 14.7368C302.874 14.7368 309.472 8.13862 309.472 0H299.648C299.648 2.7096 297.443 4.91225 294.735 4.91225C292.028 4.91225 289.823 2.7096 289.823 0H279.999C279.999 8.13862 286.597 14.7368 294.735 14.7368Z" fill="#F8D89F"/>
<path d="M294.735 34.3861C313.726 34.3861 329.121 18.991 329.121 0H319.297C319.297 6.56087 316.742 12.7288 312.101 17.3679C307.462 22.0071 301.294 24.5635 294.733 24.5635C288.173 24.5635 282.005 22.0091 277.366 17.3679C272.726 12.7288 270.17 6.56087 270.17 0H260.346C260.346 18.991 275.741 34.3861 294.731 34.3861H294.735Z" fill="#F8D89F"/>
<path d="M378.243 98.2461C378.243 106.385 384.842 112.983 392.98 112.983V103.158C390.271 103.158 388.068 100.954 388.068 98.2461C388.068 95.5385 390.271 93.3338 392.98 93.3338V83.5092C384.842 83.5092 378.243 90.1074 378.243 98.2461Z" fill="#F8D89F"/>
<path d="M311.07 81.9117C311.099 81.7427 311.134 81.5737 311.17 81.4047C311.879 77.9366 312.814 74.5039 313.966 71.1478C314.591 69.3224 315.28 67.5167 316.029 65.7443C317.002 63.4493 318.078 61.1896 319.257 58.9811C320.617 56.4325 322.11 53.9528 323.727 51.5615C326.718 47.1365 330.151 42.9768 333.931 39.1943C337.712 35.4138 341.873 31.9791 346.296 28.9924C348.688 27.3773 351.165 25.8819 353.716 24.5242C355.924 23.3413 358.182 22.2645 360.477 21.2939C362.253 20.5433 364.055 19.8536 365.88 19.2307C369.235 18.0792 372.667 17.1439 376.137 16.4326C376.306 16.3992 376.475 16.3639 376.646 16.3305C380.008 15.6644 383.429 15.2046 386.873 14.957C388.901 14.8096 390.939 14.7349 392.978 14.7349V4.9123C391.287 4.9123 389.605 4.9575 387.933 5.04592C388.021 3.37574 388.066 1.69376 388.066 0H378.242C378.242 2.03959 378.167 4.07721 378.02 6.10501C374.597 6.65519 371.237 7.39203 367.951 8.30572C368.26 5.57841 368.415 2.80787 368.415 0H358.591C358.591 4.03005 358.223 8.00313 357.492 11.8956C353.445 13.5599 349.538 15.5013 345.801 17.6961C347.723 12.153 348.766 6.19736 348.766 0H338.94C338.94 5.97336 337.773 11.762 335.47 17.2049C333.243 22.4689 330.054 27.1984 325.991 31.2619C321.93 35.3234 317.2 38.5144 311.936 40.7387C306.493 43.0436 300.703 44.2088 294.731 44.2088C288.76 44.2088 282.969 43.0416 277.527 40.7387C272.263 38.5125 267.533 35.3234 263.472 31.2619C259.408 27.1984 256.219 22.4689 253.993 17.2049C251.688 11.762 250.523 5.97336 250.523 0H240.697C240.697 6.19736 241.74 12.153 243.662 17.6961C249.067 33.3035 261.426 45.6628 277.033 51.0683C282.578 52.992 288.532 54.0353 294.731 54.0353C300.931 54.0353 306.884 52.992 312.429 51.0683C310.234 54.8056 308.293 58.7119 306.627 62.7596C302.734 63.4925 298.761 63.8599 294.731 63.8599C290.701 63.8599 286.728 63.4925 282.836 62.7596C278.515 61.9481 274.296 60.6866 270.207 58.9811C270.097 58.9359 269.987 58.8907 269.877 58.8435C266.095 57.246 262.446 55.2654 259.033 52.9586C255.649 50.6714 252.468 48.0463 249.576 45.1539C246.684 42.2615 244.058 39.0784 241.773 35.6967C239.467 32.2837 237.486 28.6348 235.886 24.8523C235.839 24.7443 235.794 24.6362 235.749 24.5262C234.045 20.4371 232.784 16.2165 231.968 11.8956C231.238 8.00313 230.87 4.03005 230.87 0H221.046C221.046 2.80984 221.203 5.57841 221.509 8.30572C221.928 12.0391 222.623 15.6879 223.58 19.2327C224.747 23.5673 226.302 27.7427 228.204 31.7217C235.468 46.9322 247.796 59.2601 263.008 66.5263C266.987 68.4284 271.164 69.9826 275.499 71.1498C279.042 72.1067 282.69 72.8023 286.424 73.2208C289.149 73.5293 291.922 73.6846 294.729 73.6846C297.537 73.6846 300.31 73.5274 303.035 73.2208C302.121 76.5062 301.385 79.8662 300.834 83.2891C298.805 83.4384 296.767 83.5111 294.729 83.5111C292.692 83.5111 290.654 83.4384 288.624 83.2891C285.18 83.0415 281.757 82.5817 278.395 81.9136C278.226 81.8842 278.057 81.8488 277.888 81.8134C274.42 81.1041 270.987 80.1688 267.631 79.0174C265.806 78.3925 264 77.7028 262.228 76.9542C259.933 75.9816 257.673 74.9048 255.465 73.7258C252.916 72.3661 250.437 70.8728 248.045 69.2556C243.62 66.265 239.461 62.8323 235.678 59.0518C231.898 55.2713 228.463 51.1096 225.476 46.6865C223.861 44.2952 222.366 41.8175 221.008 39.267C219.825 37.0565 218.749 34.7988 217.778 32.5037C217.027 30.7274 216.338 28.9256 215.715 27.1002C214.563 23.7441 213.628 20.3114 212.917 16.8433C212.883 16.6743 212.848 16.5053 212.815 16.3344C212.148 12.9724 211.689 9.55148 211.441 6.10698C211.294 4.07918 211.219 2.04155 211.219 0.00196492H201.395C201.395 1.69376 201.44 3.37574 201.528 5.04788C199.858 4.95946 198.176 4.91427 196.482 4.91427C194.789 4.91427 193.109 4.95946 191.436 5.04788C191.525 3.3777 191.57 1.69573 191.57 0.00196492H181.746C181.746 2.04155 181.671 4.07918 181.524 6.10698C178.101 6.65715 174.741 7.394 171.455 8.30769C171.764 5.58038 171.919 2.80984 171.919 0.00196492H162.095C162.095 4.03202 161.727 8.00509 160.996 11.8976C156.948 13.5619 153.042 15.5032 149.305 17.698C151.227 12.155 152.27 6.19933 152.27 0.00196492H142.444C142.444 5.97533 141.276 11.764 138.974 17.2068C136.747 22.4708 133.558 27.2004 129.495 31.2639C125.433 35.3254 120.704 38.5164 115.44 40.7407C109.997 43.0455 104.207 44.2107 98.2353 44.2107C92.2639 44.2107 86.4734 43.0436 81.0306 40.7407C75.7666 38.5144 71.0371 35.3254 66.9756 31.2639C62.9122 27.2004 59.7232 22.4708 57.497 17.2068C55.1921 11.764 54.0269 5.97533 54.0269 0.00196492H44.2005C44.2005 6.19933 45.2438 12.155 47.1655 17.698C52.5709 33.3054 64.9302 45.6648 80.5374 51.0703C86.0824 52.9939 92.036 54.0373 98.2353 54.0373C104.435 54.0373 110.388 52.9939 115.933 51.0703C113.738 54.8076 111.797 58.7138 110.131 62.7616C106.238 63.4945 102.265 63.8619 98.2353 63.8619C94.2053 63.8619 90.2322 63.4945 86.3398 62.7616C82.0189 61.95 77.8003 60.6886 73.7113 58.983C73.6013 58.9378 73.4913 58.8926 73.3812 58.8455C69.5988 57.248 65.95 55.2673 62.5369 52.9605C59.1534 50.6734 55.9722 48.0482 53.0799 45.1559C50.1875 42.2635 47.5624 39.0803 45.2772 35.6987C42.9704 32.2856 40.9898 28.6368 39.3904 24.8543C39.3432 24.7462 39.298 24.6382 39.2528 24.5281C37.5493 20.4391 36.2878 16.2185 35.4724 11.8976C34.7414 8.00509 34.374 4.03202 34.374 0.00196492H24.5495C24.5495 2.8118 24.7067 5.58038 25.0132 8.30769C25.4317 12.041 26.1273 15.6899 27.0842 19.2346C28.2514 23.5692 29.8056 27.7447 31.7076 31.7237C38.9719 46.9341 51.2997 59.262 66.5119 66.5283C70.4909 68.4304 74.6682 69.9846 79.0028 71.1518C82.5455 72.1087 86.1944 72.8043 89.9277 73.2228C92.653 73.5313 95.4255 73.6865 98.2333 73.6865C101.041 73.6865 103.814 73.5293 106.539 73.2228C105.625 76.5081 104.888 79.8682 104.338 83.2911C102.309 83.4404 100.271 83.5131 98.2333 83.5131C96.1957 83.5131 94.1581 83.4404 92.1284 83.2911C88.6839 83.0435 85.261 82.5837 81.8991 81.9156C81.7301 81.8861 81.5611 81.8508 81.3921 81.8154C77.9241 81.1061 74.4914 80.1708 71.1353 79.0193C69.3099 78.3945 67.5042 77.7048 65.7319 76.9561C63.4369 75.9835 61.1772 74.9067 58.9687 73.7278C56.4202 72.3681 53.9405 70.8747 51.5492 69.2576C47.1242 66.267 42.9645 62.8343 39.1821 59.0538C35.4016 55.2732 31.967 51.1115 28.9803 46.6885C27.3652 44.2972 25.8699 41.8194 24.5122 39.269C23.3293 37.0584 22.2525 34.8007 21.2819 32.5057C20.5313 30.7294 19.8416 28.9276 19.2187 27.1022C18.0673 23.7461 17.132 20.3134 16.4207 16.8453C16.3873 16.6763 16.3519 16.5073 16.3185 16.3364C15.6524 12.9744 15.1926 9.55345 14.945 6.10894C14.7977 4.08114 14.723 2.04352 14.723 0.00392984H4.91225C4.91225 1.69573 4.95745 3.3777 5.04587 5.04985C3.3757 4.96143 1.69375 4.91623 0 4.91623V14.7408C2.03957 14.7408 4.07717 14.8155 6.10495 14.9629C6.65512 18.3858 7.39196 21.7458 8.30564 25.0311C5.57836 24.7226 2.80784 24.5674 0 24.5674V34.392C4.03001 34.392 8.00305 34.7595 11.8955 35.4904C13.5598 39.5381 15.5011 43.4444 17.6959 47.1817C12.1529 45.26 6.1973 44.2166 0 44.2166V54.0432C5.9733 54.0432 11.7619 55.2104 17.2047 57.5133C22.4687 59.7395 27.1982 62.9286 31.2616 66.992C35.323 71.0535 38.514 75.7831 40.7383 81.0471C43.0431 86.49 44.2083 92.2806 44.2083 98.252C44.2083 104.223 43.0412 110.014 40.7383 115.457C38.5121 120.721 35.323 125.45 31.2616 129.512C27.1982 133.575 22.4687 136.764 17.2047 138.991C11.7619 141.296 5.9733 142.461 0 142.461V152.287C6.1973 152.287 12.1529 151.244 17.6959 149.322C33.3031 143.917 45.6624 131.557 51.0678 115.95C52.9914 110.405 54.0348 104.451 54.0348 98.252C54.0348 92.0526 52.9914 86.0989 51.0678 80.5539C54.805 82.7487 58.7113 84.6901 62.759 86.3563C63.4919 90.2488 63.8593 94.2219 63.8593 98.252C63.8593 102.282 63.4919 106.255 62.759 110.148C61.9475 114.468 60.686 118.689 58.9805 122.776C58.9353 122.886 58.8901 122.996 58.8429 123.106C57.2455 126.889 55.2648 130.538 52.958 133.951C50.6729 137.334 48.0458 140.515 45.1534 143.408C42.2611 146.3 39.078 148.925 35.6964 151.211C32.2833 153.517 28.6345 155.498 24.8521 157.097C24.744 157.145 24.6359 157.19 24.5259 157.235C20.4369 158.939 16.2163 160.2 11.8955 161.015C8.00305 161.746 4.03001 162.114 0 162.114V171.938C2.80981 171.938 5.57836 171.781 8.30564 171.475C12.039 171.056 15.6897 170.361 19.2325 169.404C23.567 168.237 27.7424 166.682 31.7214 164.78C46.9317 157.516 59.2595 145.188 66.5257 129.976C68.4277 125.997 69.9819 121.819 71.1491 117.485C72.106 113.942 72.8016 110.293 73.2201 106.56C73.5286 103.834 73.6838 101.062 73.6838 98.2539C73.6838 95.4461 73.5266 92.6736 73.2201 89.9482C76.5054 90.8619 79.8654 91.5987 83.2883 92.1489C83.4376 94.1787 83.5103 96.2163 83.5103 98.2539C83.5103 100.292 83.4376 102.329 83.2883 104.359C83.0407 107.803 82.5809 111.226 81.9128 114.588C81.8834 114.757 81.848 114.926 81.8126 115.095C81.1033 118.563 80.168 121.996 79.0166 125.352C78.3917 127.178 77.702 128.983 76.9534 130.756C75.9808 133.051 74.904 135.31 73.7251 137.519C72.3654 140.067 70.872 142.547 69.2549 144.939C66.2643 149.364 62.8317 153.523 59.0512 157.306C55.2707 161.086 51.1091 164.521 46.6861 167.508C44.2948 169.123 41.817 170.618 39.2666 171.976C37.058 173.159 34.8004 174.235 32.5054 175.206C30.7291 175.957 28.9273 176.646 27.1019 177.269C23.7478 178.421 20.3151 179.356 16.8451 180.067C16.6761 180.101 16.5071 180.136 16.3362 180.17C12.9742 180.836 9.55335 181.295 6.10888 181.543C4.0811 181.69 2.0435 181.765 0.0039298 181.765V191.59C1.69571 191.59 3.37767 191.544 5.0498 191.456C4.96138 193.126 4.91618 194.808 4.91618 196.502C4.91618 198.196 4.96138 199.876 5.0498 201.548C3.37963 201.459 1.69768 201.414 0.0039298 201.414V211.239C2.0435 211.239 4.0811 211.314 6.10888 211.461C6.65905 214.884 7.39589 218.244 8.30957 221.529C5.58229 221.221 2.81177 221.065 0.0039298 221.065V230.89C4.03394 230.89 8.00698 231.258 11.8994 231.988C13.5637 236.036 15.505 239.942 17.6998 243.68C12.1568 241.758 6.20123 240.715 0.0039298 240.715V250.541C5.97723 250.541 11.7658 251.708 17.2086 254.011C22.4726 256.238 27.2021 259.427 31.2655 263.49C35.327 267.552 38.518 272.281 40.7422 277.545C43.0471 282.988 44.2123 288.779 44.2123 294.75C44.2123 300.721 43.0451 306.512 40.7422 311.955C38.516 317.219 35.327 321.948 31.2655 326.01C27.2021 330.073 22.4726 333.262 17.2086 335.489C11.7658 337.794 5.97723 338.959 0.0039298 338.959V348.785C6.20123 348.785 12.1568 347.742 17.6998 345.82C33.3071 340.415 45.6663 328.055 51.0717 312.448C52.9954 306.903 54.0387 300.949 54.0387 294.75C54.0387 288.551 52.9954 282.597 51.0717 277.052C54.809 279.247 58.7152 281.188 62.7629 282.854C63.4958 286.747 63.8632 290.72 63.8632 294.75C63.8632 298.78 63.4958 302.753 62.7629 306.646C61.9514 310.967 60.6899 315.187 58.9844 319.274C58.9392 319.384 58.894 319.494 58.8468 319.604C57.2494 323.387 55.2688 327.036 52.962 330.449C50.6768 333.832 48.0497 337.014 45.1574 339.906C42.265 342.798 39.0819 345.423 35.7003 347.709C32.2873 350.015 28.6384 351.996 24.856 353.595C24.7479 353.643 24.6399 353.688 24.5298 353.733C20.4409 355.437 16.2203 356.698 11.8994 357.514C8.00698 358.244 4.03394 358.612 0.0039298 358.612V368.437C2.81374 368.437 5.58229 368.279 8.30957 367.973C12.0429 367.554 15.6937 366.859 19.2364 365.902C23.571 364.735 27.7464 363.18 31.7253 361.278C46.9356 354.014 59.2634 341.686 66.5296 326.474C68.4316 322.495 69.9859 318.317 71.153 313.983C72.1099 310.44 72.8055 306.791 73.224 303.058C73.5325 300.332 73.6877 297.56 73.6877 294.752C73.6877 291.944 73.5306 289.172 73.224 286.446C76.5093 287.36 79.8693 288.097 83.2922 288.647C83.4415 290.677 83.5142 292.714 83.5142 294.752C83.5142 296.79 83.4415 298.827 83.2922 300.857C83.0446 304.302 82.5848 307.724 81.9168 311.086C81.8873 311.255 81.8519 311.424 81.8166 311.593C81.1072 315.061 80.1719 318.494 79.0205 321.85C78.3957 323.676 77.706 325.481 76.9573 327.254C75.9847 329.549 74.908 331.808 73.729 334.017C72.3693 336.566 70.876 339.045 69.2589 341.437C66.2683 345.862 62.8356 350.021 59.0551 353.804C55.2747 357.584 51.113 361.019 46.69 364.006C44.2987 365.621 41.821 367.116 39.2705 368.474C37.062 369.657 34.8043 370.734 32.5093 371.704C30.733 372.455 28.9312 373.144 27.1058 373.767C23.7517 374.919 20.319 375.854 16.849 376.565C16.6801 376.599 16.5111 376.634 16.3401 376.668C12.9782 377.334 9.55728 377.793 6.11281 378.041C4.08503 378.188 2.04743 378.263 0.00785961 378.263V388.088C1.69964 388.088 3.3816 388.043 5.05373 387.954C4.96531 389.624 4.92011 391.306 4.92011 393H14.7446C14.7446 390.96 14.8193 388.923 14.9667 386.895C18.3895 386.345 21.7495 385.608 25.0348 384.694C24.7263 387.422 24.5711 390.192 24.5711 393H34.3956C34.3956 388.97 34.763 384.997 35.494 381.104C39.5417 379.44 43.4479 377.499 47.1852 375.304C45.2635 380.847 44.2201 386.803 44.2201 393H54.0466C54.0466 387.027 55.2137 381.238 57.5166 375.795C59.7428 370.531 62.9319 365.802 66.9953 361.738C71.0567 357.677 75.7863 354.486 81.0502 352.261C86.493 349.956 92.2836 348.791 98.2549 348.791C104.226 348.791 110.017 349.958 115.46 352.261C120.724 354.488 125.453 357.677 129.515 361.738C133.578 365.802 136.767 370.531 138.993 375.795C141.298 381.238 142.463 387.027 142.463 393H152.29C152.29 386.803 151.246 380.847 149.325 375.304C143.919 359.697 131.56 347.337 115.953 341.932C110.408 340.008 104.454 338.965 98.2549 338.965C92.0556 338.965 86.102 340.008 80.557 341.932C82.7518 338.194 84.6932 334.288 86.3594 330.24C90.2519 329.508 94.2249 329.14 98.2549 329.14C102.285 329.14 106.258 329.508 110.15 330.24C114.471 331.052 118.69 332.313 122.779 334.019C122.889 334.064 122.999 334.109 123.109 334.157C126.891 335.754 130.54 337.735 133.953 340.041C137.337 342.329 140.518 344.954 143.41 347.846C146.303 350.738 148.928 353.922 151.213 357.303C153.52 360.716 155.5 364.365 157.1 368.148C157.147 368.256 157.192 368.364 157.237 368.474C158.941 372.563 160.202 376.784 161.018 381.104C161.749 384.997 162.116 388.97 162.116 393H171.941C171.941 390.19 171.784 387.422 171.477 384.694C171.058 380.961 170.363 377.312 169.406 373.767C168.239 369.433 166.685 365.257 164.783 361.278C157.518 346.068 145.191 333.74 129.978 326.474C125.999 324.572 121.822 323.017 117.487 321.85C113.945 320.893 110.296 320.198 106.563 319.779C103.837 319.471 101.065 319.315 98.2569 319.315C95.449 319.315 92.6766 319.473 89.9512 319.779C90.8649 316.494 91.6018 313.134 92.1519 309.711C94.1817 309.562 96.2193 309.489 98.2569 309.489C100.294 309.489 102.332 309.562 104.362 309.711C107.806 309.958 111.229 310.418 114.591 311.086C114.76 311.116 114.929 311.151 115.098 311.187C118.566 311.896 121.999 312.831 125.355 313.983C127.18 314.608 128.986 315.297 130.758 316.046C133.053 317.018 135.313 318.095 137.522 319.274C140.07 320.634 142.55 322.127 144.941 323.744C149.366 326.735 153.526 330.168 157.308 333.948C161.089 337.729 164.523 341.89 167.51 346.313C169.125 348.705 170.62 351.183 171.978 353.733C173.161 355.944 174.238 358.201 175.208 360.496C175.959 362.273 176.649 364.074 177.271 365.9C178.423 369.256 179.358 372.689 180.069 376.157C180.103 376.326 180.138 376.495 180.172 376.666C180.838 380.028 181.298 383.449 181.545 386.893C181.693 388.921 181.767 390.958 181.767 392.998H191.592C191.592 391.306 191.546 389.624 191.458 387.952C193.128 388.041 194.81 388.086 196.504 388.086C198.198 388.086 199.878 388.041 201.55 387.952C201.461 389.622 201.416 391.304 201.416 392.998H211.241C211.241 390.958 211.315 388.921 211.463 386.893C214.886 386.343 218.246 385.606 221.531 384.692C221.222 387.42 221.067 390.19 221.067 392.998H230.892C230.892 388.968 231.259 384.995 231.99 381.102C236.038 379.438 239.944 377.497 243.681 375.302C241.76 380.845 240.716 386.801 240.716 392.998H250.543C250.543 387.025 251.71 381.236 254.013 375.793C256.239 370.529 259.428 365.8 263.491 361.736C267.553 357.675 272.282 354.484 277.546 352.259C282.989 349.954 288.78 348.789 294.751 348.789C300.722 348.789 306.513 349.956 311.956 352.259C317.22 354.486 321.949 357.675 326.011 361.736C330.074 365.8 333.263 370.529 335.489 375.793C337.794 381.236 338.959 387.025 338.959 392.998H348.786C348.786 386.801 347.742 380.845 345.821 375.302C340.415 359.695 328.056 347.335 312.449 341.93C306.904 340.006 300.95 338.963 294.751 338.963C288.552 338.963 282.598 340.006 277.053 341.93C279.248 338.192 281.189 334.286 282.855 330.238C286.748 329.506 290.721 329.138 294.751 329.138C298.781 329.138 302.754 329.506 306.647 330.238C310.967 331.05 315.186 332.311 319.275 334.017C319.385 334.062 319.495 334.107 319.605 334.155C323.387 335.752 327.036 337.733 330.449 340.04C333.833 342.327 337.014 344.952 339.906 347.844C342.799 350.737 345.424 353.92 347.709 357.301C350.016 360.714 351.996 364.363 353.596 368.146C353.643 368.254 353.688 368.362 353.733 368.472C355.437 372.561 356.698 376.782 357.514 381.102C358.245 384.995 358.612 388.968 358.612 392.998H368.437C368.437 390.188 368.28 387.42 367.973 384.692C367.555 380.959 366.859 377.31 365.902 373.765C364.735 369.431 363.181 365.255 361.279 361.276C354.014 346.066 341.687 333.738 326.474 326.472C322.495 324.57 318.318 323.015 313.983 321.848C310.441 320.891 306.792 320.196 303.059 319.777C300.333 319.469 297.561 319.313 294.753 319.313C291.945 319.313 289.173 319.471 286.447 319.777C287.361 316.492 288.098 313.132 288.648 309.709C290.678 309.56 292.715 309.487 294.753 309.487C296.791 309.487 298.828 309.56 300.858 309.709C304.302 309.957 307.725 310.416 311.087 311.084C311.256 311.114 311.425 311.149 311.594 311.185C315.062 311.894 318.495 312.829 321.851 313.981C323.676 314.606 325.482 315.295 327.254 316.044C329.549 317.017 331.809 318.093 334.018 319.272C336.566 320.632 339.046 322.125 341.437 323.742C345.862 326.733 350.022 330.166 353.804 333.946C357.585 337.727 361.019 341.888 364.006 346.312C365.621 348.703 367.116 351.181 368.474 353.731C369.657 355.942 370.734 358.199 371.704 360.494C372.455 362.271 373.145 364.072 373.768 365.898C374.919 369.254 375.854 372.687 376.566 376.155C376.599 376.324 376.634 376.493 376.668 376.664C377.334 380.026 377.794 383.447 378.041 386.891C378.189 388.919 378.263 390.957 378.263 392.996H388.088C388.088 391.304 388.043 389.622 387.954 387.95C389.624 388.039 391.306 388.084 393 388.084V378.259C390.96 378.259 388.923 378.185 386.895 378.037C386.345 374.614 385.608 371.254 384.694 367.969C387.422 368.277 390.192 368.433 393 368.433V358.608C388.97 358.608 384.997 358.241 381.105 357.51C379.44 353.462 377.499 349.556 375.304 345.818C380.847 347.74 386.803 348.783 393 348.783V338.957C387.027 338.957 381.238 337.79 375.795 335.487C370.531 333.261 365.802 330.071 361.738 326.008C357.677 321.946 354.486 317.217 352.262 311.953C349.957 306.51 348.792 300.719 348.792 294.748C348.792 288.777 349.959 282.986 352.262 277.543C354.488 272.279 357.677 267.55 361.738 263.488C365.802 259.425 370.531 256.236 375.795 254.009C381.238 251.704 387.027 250.539 393 250.539V240.713C386.803 240.713 380.847 241.756 375.304 243.678C359.697 249.083 347.338 261.443 341.932 277.05C340.009 282.595 338.965 288.549 338.965 294.748C338.965 300.947 340.009 306.901 341.932 312.446C338.195 310.251 334.289 308.31 330.241 306.644C329.508 302.751 329.141 298.778 329.141 294.748C329.141 290.718 329.508 286.745 330.241 282.852C331.053 278.532 332.314 274.313 334.02 270.224C334.065 270.114 334.11 270.004 334.157 269.894C335.755 266.111 337.735 262.462 340.042 259.049C342.329 255.666 344.954 252.485 347.847 249.592C350.739 246.7 353.922 244.075 357.304 241.789C360.717 239.483 364.366 237.502 368.148 235.903C368.256 235.855 368.364 235.81 368.474 235.765C372.563 234.061 376.784 232.8 381.105 231.985C384.997 231.254 388.97 230.886 393 230.886V221.062C390.19 221.062 387.422 221.219 384.694 221.525C380.961 221.944 377.312 222.639 373.768 223.596C369.433 224.763 365.258 226.318 361.279 228.22C346.068 235.484 333.741 247.812 326.474 263.024C324.572 267.003 323.018 271.181 321.851 275.515C320.894 279.058 320.198 282.707 319.78 286.44C319.471 289.166 319.316 291.938 319.316 294.746C319.316 297.554 319.473 300.326 319.78 303.052C316.495 302.138 313.135 301.401 309.712 300.851C309.562 298.821 309.49 296.784 309.49 294.746C309.49 292.708 309.562 290.671 309.712 288.641C309.959 285.197 310.419 281.774 311.087 278.412C311.117 278.243 311.152 278.074 311.187 277.905C311.897 274.437 312.832 271.004 313.983 267.648C314.608 265.822 315.298 264.017 316.047 262.244C317.019 259.949 318.096 257.69 319.275 255.481C320.635 252.933 322.128 250.453 323.745 248.062C326.736 243.637 330.168 239.477 333.949 235.694C337.729 231.914 341.891 228.479 346.314 225.492C348.705 223.877 351.183 222.382 353.733 221.024C355.942 219.841 358.2 218.765 360.495 217.794C362.271 217.043 364.073 216.354 365.898 215.731C369.252 214.579 372.685 213.644 376.155 212.933C376.324 212.899 376.493 212.864 376.664 212.83C380.026 212.164 383.447 211.705 386.891 211.457C388.919 211.31 390.957 211.235 392.996 211.235V201.41C391.304 201.41 389.622 201.456 387.95 201.544C388.039 199.874 388.084 198.192 388.084 196.498C388.084 194.804 388.039 193.124 387.95 191.452C389.62 191.541 391.302 191.586 392.996 191.586V181.761C390.957 181.761 388.919 181.686 386.891 181.539C386.341 178.116 385.604 174.756 384.69 171.471C387.418 171.779 390.188 171.935 392.996 171.935V162.11C388.966 162.11 384.993 161.743 381.101 161.012C379.436 156.964 377.495 153.058 375.3 149.32C380.843 151.242 386.799 152.285 392.996 152.285V142.459C387.023 142.459 381.234 141.292 375.791 138.989C370.527 136.762 365.798 133.573 361.734 129.51C357.673 125.448 354.482 120.719 352.258 115.455C349.953 110.012 348.788 104.221 348.788 98.25C348.788 92.2786 349.955 86.488 352.258 81.0452C354.484 75.7811 357.673 71.0516 361.734 66.9901C365.798 62.9266 370.527 59.7375 375.791 57.5113C381.234 55.2064 387.023 54.0412 392.996 54.0412V44.2147C386.799 44.2147 380.843 45.258 375.3 47.1797C359.693 52.5852 347.334 64.9446 341.928 80.552C340.005 86.097 338.961 92.0507 338.961 98.25C338.961 104.449 340.005 110.403 341.928 115.948C338.191 113.753 334.285 111.812 330.237 110.146C329.504 106.253 329.137 102.28 329.137 98.25C329.137 94.2199 329.504 90.2469 330.237 86.3544C331.049 82.0335 332.31 77.8148 334.016 73.7258C334.061 73.6158 334.106 73.5057 334.153 73.3957C335.751 69.6132 337.731 65.9644 340.038 62.5513C342.325 59.1677 344.95 55.9865 347.843 53.0941C350.735 50.2018 353.918 47.5766 357.3 45.2914C360.713 42.9846 364.362 41.004 368.144 39.4045C368.252 39.3574 368.36 39.3122 368.47 39.267C372.559 37.5634 376.78 36.3019 381.101 35.4865C384.993 34.7555 388.966 34.3881 392.996 34.3881V24.5635C390.186 24.5635 387.418 24.7207 384.69 25.0272C380.957 25.4457 377.308 26.1413 373.764 27.0982C369.429 28.2654 365.254 29.8196 361.275 31.7217C346.064 38.986 333.737 51.3139 326.47 66.5263C324.568 70.5053 323.014 74.6827 321.847 79.0174C320.89 82.5601 320.194 86.209 319.776 89.9423C319.467 92.6677 319.312 95.4402 319.312 98.248C319.312 101.056 319.469 103.828 319.776 106.554C316.491 105.64 313.131 104.903 309.708 104.353C309.558 102.323 309.486 100.286 309.486 98.248C309.486 96.2104 309.558 94.1728 309.708 92.143C309.955 88.6985 310.415 85.2756 311.083 81.9136L311.07 81.9117ZM279.776 92.1411C279.926 94.1708 279.999 96.2085 279.999 98.2461C279.999 100.284 279.926 102.321 279.776 104.351C279.529 107.796 279.069 111.218 278.401 114.58C278.372 114.749 278.336 114.918 278.301 115.087C277.592 118.556 276.656 121.988 275.505 125.344C274.88 127.17 274.19 128.975 273.442 130.748C272.469 133.043 271.392 135.303 270.213 137.511C268.854 140.06 267.36 142.539 265.743 144.931C262.753 149.356 259.32 153.515 255.539 157.298C251.759 161.078 247.597 164.513 243.174 167.5C240.783 169.115 238.305 170.61 235.755 171.968C233.546 173.151 231.289 174.228 228.994 175.198C227.217 175.949 225.416 176.639 223.59 177.261C220.236 178.413 216.803 179.348 213.333 180.06C213.164 180.093 212.995 180.128 212.824 180.162C209.462 180.828 206.042 181.288 202.597 181.535C200.569 181.683 198.532 181.757 196.492 181.757C194.453 181.757 192.415 181.683 190.387 181.535C189.837 178.112 189.1 174.752 188.187 171.467C190.914 171.775 193.684 171.931 196.492 171.931C199.3 171.931 202.071 171.773 204.798 171.467C208.531 171.048 212.18 170.353 215.725 169.396C220.059 168.229 224.235 166.674 228.214 164.772C243.424 157.508 255.752 145.18 263.018 129.968C264.92 125.989 266.474 121.811 267.641 117.477C268.598 113.934 269.294 110.285 269.712 106.552C270.021 103.826 270.176 101.054 270.176 98.2461C270.176 95.4382 270.019 92.6657 269.712 89.9404C272.998 90.854 276.358 91.5909 279.78 92.1411H279.776ZM221.515 204.798C221.934 208.531 222.629 212.18 223.586 215.725C224.753 220.059 226.308 224.235 228.21 228.214C235.474 243.424 247.802 255.752 263.014 263.018C266.993 264.921 271.17 266.475 275.505 267.642C279.048 268.599 282.696 269.294 286.43 269.713C289.155 270.021 291.927 270.177 294.735 270.177C297.543 270.177 300.316 270.02 303.041 269.713C302.127 272.998 301.39 276.358 300.84 279.781C298.81 279.931 296.773 280.003 294.735 280.003C292.698 280.003 290.66 279.931 288.63 279.781C285.186 279.534 281.763 279.074 278.401 278.406C278.232 278.376 278.063 278.341 277.894 278.306C274.426 277.596 270.993 276.661 267.637 275.51C265.812 274.885 264.006 274.195 262.234 273.446C259.939 272.474 257.679 271.397 255.471 270.218C252.922 268.858 250.442 267.365 248.051 265.748C243.626 262.757 239.467 259.324 235.684 255.544C231.904 251.763 228.469 247.602 225.482 243.179C223.867 240.787 222.372 238.31 221.014 235.759C219.831 233.549 218.754 231.291 217.784 228.996C217.033 227.22 216.344 225.418 215.721 223.592C214.569 220.236 213.634 216.804 212.923 213.335C212.889 213.166 212.854 212.997 212.82 212.827C212.154 209.465 211.695 206.044 211.447 202.599C211.3 200.571 211.225 198.534 211.225 196.494C211.225 194.455 211.3 192.417 211.447 190.389C214.87 189.839 218.23 189.102 221.515 188.188C221.207 190.916 221.051 193.686 221.051 196.494C221.051 199.302 221.209 202.073 221.515 204.8V204.798ZM201.534 201.538C199.864 201.45 198.182 201.404 196.488 201.404C194.794 201.404 193.114 201.45 191.442 201.538C191.531 199.868 191.576 198.186 191.576 196.492C191.576 194.798 191.531 193.118 191.442 191.446C193.113 191.535 194.794 191.58 196.488 191.58C198.182 191.58 199.862 191.535 201.534 191.446C201.446 193.116 201.4 194.798 201.4 196.492C201.4 198.186 201.446 199.866 201.534 201.538ZM171.927 196.492C171.927 193.682 171.77 190.914 171.463 188.186C171.045 184.453 170.349 180.804 169.392 177.259C168.225 172.925 166.671 168.749 164.769 164.77C157.505 149.56 145.177 137.232 129.965 129.966C125.986 128.064 121.808 126.51 117.474 125.342C113.931 124.385 110.282 123.69 106.549 123.271C103.823 122.963 101.051 122.808 98.2431 122.808C95.4353 122.808 92.6628 122.965 89.9375 123.271C90.8512 119.986 91.588 116.626 92.1382 113.203C94.1679 113.054 96.2055 112.981 98.2431 112.981C100.281 112.981 102.318 113.054 104.348 113.203C107.793 113.451 111.215 113.91 114.577 114.579C114.746 114.608 114.915 114.643 115.084 114.679C118.552 115.388 121.985 116.323 125.341 117.475C127.166 118.1 128.972 118.789 130.745 119.538C133.04 120.511 135.299 121.587 137.508 122.766C140.056 124.126 142.536 125.619 144.927 127.237C149.352 130.227 153.512 133.66 157.294 137.44C161.075 141.221 164.509 145.383 167.496 149.806C169.111 152.197 170.607 154.675 171.964 157.225C173.147 159.436 174.224 161.693 175.195 163.988C175.945 165.765 176.635 167.567 177.258 169.392C178.409 172.748 179.344 176.181 180.056 179.649C180.089 179.818 180.125 179.987 180.158 180.158C180.824 183.52 181.284 186.941 181.531 190.385C181.679 192.413 181.753 194.451 181.753 196.49C181.753 198.53 181.679 200.567 181.531 202.595C178.109 203.145 174.749 203.882 171.463 204.796C171.772 202.069 171.927 199.298 171.927 196.49V196.492ZM259.247 86.3504C259.98 90.2429 260.348 94.216 260.348 98.2461C260.348 102.276 259.98 106.249 259.247 110.142C258.436 114.463 257.174 118.683 255.469 122.77C255.423 122.88 255.378 122.99 255.331 123.1C253.734 126.883 251.753 130.532 249.446 133.945C247.159 137.328 244.534 140.51 241.642 143.402C238.749 146.294 235.566 148.919 232.185 151.205C228.772 153.511 225.123 155.492 221.34 157.092C221.232 157.139 221.124 157.184 221.014 157.229C216.925 158.933 212.705 160.194 208.384 161.01C204.491 161.741 200.518 162.108 196.488 162.108C192.458 162.108 188.485 161.741 184.593 161.01C182.928 156.962 180.987 153.056 178.792 149.318C184.335 151.24 190.291 152.283 196.488 152.283C202.686 152.283 208.641 151.24 214.184 149.318C229.791 143.913 242.151 131.553 247.556 115.946C249.48 110.401 250.523 104.447 250.523 98.248C250.523 92.0487 249.48 86.095 247.556 80.55C251.293 82.7448 255.199 84.6862 259.247 86.3524V86.3504ZM227.75 66.9842C231.811 71.0457 235.002 75.7752 237.227 81.0393C239.531 86.4821 240.697 92.2727 240.697 98.2441C240.697 104.216 239.529 110.006 237.227 115.449C235 120.713 231.811 125.443 227.75 129.504C223.686 133.568 218.957 136.757 213.693 138.983C208.25 141.288 202.462 142.453 196.488 142.453C190.515 142.453 184.726 141.286 179.284 138.983C174.02 136.757 169.29 133.568 165.227 129.504C161.165 125.443 157.974 120.713 155.75 115.449C153.445 110.006 152.28 104.216 152.28 98.2441C152.28 92.2727 153.447 86.4821 155.75 81.0393C157.976 75.7752 161.165 71.0457 165.227 66.9842C169.29 62.9207 174.02 59.7316 179.284 57.5054C184.726 55.2005 190.515 54.0353 196.488 54.0353C202.462 54.0353 208.25 55.2025 213.693 57.5054C218.957 59.7316 223.686 62.9207 227.75 66.9842ZM214.184 47.1738C208.641 45.2521 202.686 44.2088 196.488 44.2088C190.291 44.2088 184.335 45.2521 178.792 47.1738C163.185 52.5793 150.826 64.9387 145.42 80.5461C143.497 86.0911 142.453 92.0448 142.453 98.2441C142.453 104.443 143.497 110.397 145.42 115.942C141.683 113.747 137.777 111.806 133.729 110.14C132.996 106.247 132.629 102.274 132.629 98.2441C132.629 94.2141 132.996 90.241 133.729 86.3485C134.541 82.0276 135.802 77.8089 137.508 73.7199C137.553 73.6099 137.598 73.4999 137.645 73.3898C139.243 69.6073 141.223 65.9585 143.53 62.5454C145.815 59.1618 148.442 55.9806 151.335 53.0882C154.227 50.1959 157.41 47.5707 160.792 45.2855C164.205 42.9787 167.854 40.9981 171.636 39.3986C171.744 39.3515 171.852 39.3063 171.962 39.2611C176.051 37.5575 180.272 36.296 184.593 35.4806C188.485 34.7496 192.458 34.3822 196.488 34.3822C200.518 34.3822 204.491 34.7496 208.384 35.4806C210.048 39.5283 211.989 43.4346 214.184 47.1719V47.1738ZM113.202 92.1391C113.45 88.6946 113.909 85.2717 114.577 81.9097C114.607 81.7407 114.642 81.5718 114.678 81.4028C115.387 77.9347 116.322 74.502 117.474 71.1459C118.098 69.3205 118.788 67.5147 119.537 65.7423C120.509 63.4473 121.586 61.1877 122.765 58.9791C124.125 56.4306 125.618 53.9508 127.235 51.5595C130.226 47.1345 133.659 42.9748 137.439 39.1923C141.219 35.4118 145.381 31.9771 149.804 28.9905C152.195 27.3753 154.673 25.88 157.224 24.5222C159.432 23.3393 161.69 22.2626 163.985 21.2919C165.761 20.5413 167.563 19.8516 169.388 19.2287C172.742 18.0773 176.175 17.142 179.645 16.4307C179.814 16.3973 179.983 16.3619 180.154 16.3285C183.516 15.6624 186.937 15.2026 190.381 14.955C192.409 14.8076 194.447 14.733 196.486 14.733C198.526 14.733 200.563 14.8076 202.591 14.955C203.141 18.3779 203.878 21.7379 204.792 25.0233C202.065 24.7148 199.294 24.5596 196.486 24.5596C193.678 24.5596 190.908 24.7167 188.181 25.0233C184.447 25.4418 180.798 26.1374 177.254 27.0943C172.919 28.2615 168.744 29.8157 164.765 31.7178C149.555 38.9821 137.227 51.31 129.961 66.5224C128.059 70.5014 126.504 74.6788 125.337 79.0134C124.38 82.5562 123.685 86.205 123.266 89.9384C122.958 92.6637 122.802 95.4362 122.802 98.2441C122.802 101.052 122.96 103.824 123.266 106.55C119.981 105.636 116.621 104.899 113.198 104.349C113.049 102.319 112.976 100.282 112.976 98.2441C112.976 96.2065 113.049 94.1689 113.198 92.1391H113.202ZM93.1992 93.1982C94.8694 93.2866 96.5513 93.3318 98.2451 93.3318C99.9388 93.3318 101.619 93.2866 103.291 93.1982C103.203 94.8684 103.157 96.5503 103.157 98.2441C103.157 99.9379 103.203 101.618 103.291 103.29C101.621 103.202 99.9388 103.156 98.2451 103.156C96.5513 103.156 94.8714 103.202 93.1992 103.29C93.2876 101.62 93.3328 99.9379 93.3328 98.2441C93.3328 96.5503 93.2876 94.8703 93.1992 93.1982ZM86.3496 133.731C90.242 132.998 94.2151 132.63 98.2451 132.63C102.275 132.63 106.248 132.998 110.141 133.731C114.461 134.542 118.68 135.804 122.769 137.509C122.879 137.554 122.989 137.6 123.099 137.647C126.882 139.244 130.53 141.225 133.943 143.532C137.327 145.819 140.508 148.444 143.401 151.336C146.293 154.229 148.918 157.412 151.203 160.793C153.51 164.207 155.491 167.855 157.09 171.638C157.137 171.746 157.182 171.854 157.228 171.964C158.931 176.053 160.193 180.274 161.008 184.595C161.739 188.487 162.106 192.46 162.106 196.49C162.106 200.52 161.739 204.493 161.008 208.386C156.96 210.05 153.054 211.991 149.317 214.186C151.238 208.643 152.282 202.688 152.282 196.49C152.282 190.293 151.238 184.337 149.317 178.794C143.911 163.187 131.552 150.827 115.945 145.422C110.4 143.498 104.446 142.455 98.2471 142.455C92.0478 142.455 86.0941 143.498 80.5492 145.422C82.744 141.685 84.6853 137.778 86.3515 133.731H86.3496ZM57.5048 179.285C59.7311 174.021 62.9201 169.292 66.9835 165.228C71.045 161.167 75.7745 157.976 81.0384 155.751C86.4812 153.447 92.2718 152.281 98.2431 152.281C104.214 152.281 110.005 153.449 115.448 155.751C120.712 157.978 125.441 161.167 129.503 165.228C133.566 169.292 136.755 174.021 138.981 179.285C141.286 184.728 142.451 190.517 142.451 196.49C142.451 202.464 141.284 208.252 138.981 213.695C136.755 218.959 133.566 223.689 129.503 227.752C125.441 231.814 120.712 235.005 115.448 237.229C110.005 239.534 104.214 240.699 98.2431 240.699C92.2718 240.699 86.4812 239.532 81.0384 237.229C75.7745 235.003 71.045 231.814 66.9835 227.752C62.9201 223.689 59.7311 218.959 57.5048 213.695C55.2 208.252 54.0348 202.464 54.0348 196.49C54.0348 190.517 55.202 184.728 57.5048 179.285ZM35.4842 184.597C39.5319 182.932 43.4381 180.991 47.1753 178.796C45.2537 184.339 44.2103 190.295 44.2103 196.492C44.2103 202.69 45.2537 208.645 47.1753 214.188C52.5808 229.796 64.94 242.155 80.5472 247.56C86.0922 249.484 92.0458 250.527 98.2451 250.527C104.444 250.527 110.398 249.484 115.943 247.56C113.748 251.298 111.807 255.204 110.141 259.252C106.248 259.985 102.275 260.352 98.2451 260.352C94.2151 260.352 90.242 259.985 86.3496 259.252C82.0288 258.44 77.8101 257.179 73.7212 255.473C73.6111 255.428 73.5011 255.383 73.3911 255.336C69.6086 253.738 65.9598 251.758 62.5468 249.451C59.1632 247.164 55.982 244.538 53.0897 241.646C50.1973 238.754 47.5722 235.571 45.2871 232.189C42.9803 228.776 40.9996 225.127 39.4002 221.344C39.3531 221.236 39.3079 221.128 39.2627 221.018C37.5591 216.929 36.2976 212.709 35.4822 208.388C34.7513 204.495 34.3838 200.522 34.3838 196.492C34.3838 192.462 34.7513 188.489 35.4822 184.597H35.4842ZM81.9109 278.404C81.7419 278.374 81.5729 278.339 81.4039 278.304C77.9359 277.594 74.5032 276.659 71.1471 275.508C69.3217 274.883 67.516 274.193 65.7436 273.444C63.4486 272.472 61.189 271.395 58.9805 270.216C56.432 268.856 53.9523 267.363 51.561 265.746C47.136 262.755 42.9763 259.322 39.1939 255.542C35.4134 251.761 31.9788 247.6 28.9921 243.177C27.377 240.785 25.8817 238.308 24.5239 235.757C23.3411 233.547 22.2643 231.289 21.2936 228.994C20.543 227.218 19.8534 225.416 19.2305 223.59C18.0791 220.234 17.1438 216.802 16.4325 213.333C16.3991 213.165 16.3637 212.996 16.3303 212.825C15.6642 209.463 15.2044 206.042 14.9568 202.597C14.8095 200.569 14.7348 198.532 14.7348 196.492C14.7348 194.453 14.8095 192.415 14.9568 190.387C18.3797 189.837 21.7397 189.1 25.025 188.186C24.7165 190.914 24.5613 193.684 24.5613 196.492C24.5613 199.3 24.7185 202.071 25.025 204.798C25.4435 208.531 26.1391 212.18 27.096 215.725C28.2631 220.059 29.8174 224.235 31.7194 228.214C38.9837 243.424 51.3114 255.752 66.5237 263.018C70.5026 264.921 74.68 266.475 79.0146 267.642C82.5573 268.599 86.2061 269.294 89.9395 269.713C92.6648 270.021 95.4372 270.177 98.2451 270.177C101.053 270.177 103.825 270.02 106.551 269.713C105.637 272.998 104.9 276.358 104.35 279.781C102.32 279.931 100.283 280.003 98.2451 280.003C96.2075 280.003 94.1699 279.931 92.1401 279.781C88.6957 279.534 85.2728 279.074 81.9109 278.406V278.404ZM98.2451 299.651C96.5533 299.651 94.8714 299.696 93.1992 299.784C93.2876 298.114 93.3328 296.432 93.3328 294.738C93.3328 293.044 93.2876 291.364 93.1992 289.692C94.8694 289.781 96.5513 289.826 98.2451 289.826C99.9388 289.826 101.619 289.781 103.291 289.692C103.203 291.362 103.157 293.044 103.157 294.738C103.157 296.432 103.203 298.112 103.291 299.784C101.621 299.696 99.9388 299.651 98.2451 299.651ZM113.204 300.843C113.055 298.813 112.982 296.776 112.982 294.738C112.982 292.701 113.055 290.663 113.204 288.633C113.451 285.189 113.911 281.766 114.579 278.404C114.609 278.235 114.644 278.066 114.68 277.897C115.389 274.429 116.324 270.996 117.476 267.64C118.1 265.815 118.79 264.009 119.539 262.236C120.511 259.941 121.588 257.682 122.767 255.473C124.127 252.925 125.62 250.445 127.237 248.054C130.228 243.629 133.66 239.469 137.441 235.686C141.221 231.906 145.383 228.471 149.806 225.485C152.197 223.869 154.675 222.374 157.226 221.016C159.434 219.833 161.692 218.757 163.987 217.786C165.763 217.035 167.565 216.346 169.39 215.723C172.744 214.571 176.177 213.636 179.647 212.925C179.816 212.891 179.985 212.856 180.156 212.823C183.518 212.157 186.939 211.697 190.383 211.449C192.411 211.302 194.449 211.227 196.488 211.227C198.528 211.227 200.565 211.302 202.593 211.449C203.143 214.872 203.88 218.232 204.794 221.517C202.067 221.209 199.296 221.054 196.488 221.054C193.68 221.054 190.91 221.211 188.183 221.517C184.449 221.936 180.8 222.632 177.256 223.588C172.921 224.756 168.746 226.31 164.767 228.212C149.557 235.476 137.229 247.804 129.963 263.017C128.061 266.996 126.506 271.173 125.339 275.508C124.382 279.05 123.687 282.699 123.268 286.432C122.96 289.158 122.804 291.93 122.804 294.738C122.804 297.546 122.962 300.319 123.268 303.044C119.983 302.13 116.623 301.393 113.2 300.843H113.204ZM133.731 306.634C132.998 302.741 132.631 298.768 132.631 294.738C132.631 290.708 132.998 286.735 133.731 282.843C134.543 278.522 135.804 274.303 137.51 270.214C137.555 270.104 137.6 269.994 137.647 269.884C139.245 266.101 141.225 262.453 143.532 259.04C145.817 255.656 148.444 252.475 151.337 249.582C154.229 246.69 157.412 244.065 160.794 241.78C164.207 239.473 167.856 237.492 171.638 235.893C171.746 235.846 171.854 235.8 171.964 235.755C176.053 234.052 180.274 232.79 184.595 231.975C188.487 231.244 192.46 230.876 196.49 230.876C200.52 230.876 204.493 231.244 208.386 231.975C210.05 236.022 211.991 239.929 214.186 243.666C208.643 241.744 202.687 240.701 196.49 240.701C190.293 240.701 184.337 241.744 178.794 243.666C163.187 249.071 150.828 261.431 145.422 277.038C143.499 282.583 142.455 288.537 142.455 294.736C142.455 300.936 143.499 306.889 145.422 312.434C141.685 310.24 137.779 308.298 133.731 306.632V306.634ZM165.229 326C161.167 321.939 157.976 317.209 155.752 311.945C153.447 306.502 152.282 300.712 152.282 294.74C152.282 288.769 153.449 282.978 155.752 277.535C157.978 272.271 161.167 267.542 165.229 263.48C169.292 259.417 174.022 256.228 179.286 254.001C184.728 251.697 190.517 250.531 196.49 250.531C202.463 250.531 208.252 251.699 213.695 254.001C218.959 256.228 223.688 259.417 227.752 263.48C231.813 267.542 235.004 272.271 237.228 277.535C239.533 282.978 240.699 288.769 240.699 294.74C240.699 300.712 239.531 306.502 237.228 311.945C235.002 317.209 231.813 321.939 227.752 326C223.688 330.064 218.959 333.253 213.695 335.479C208.252 337.784 202.463 338.949 196.49 338.949C190.517 338.949 184.728 337.782 179.286 335.479C174.022 333.253 169.292 330.064 165.229 326ZM178.794 345.81C184.337 347.732 190.293 348.776 196.49 348.776C202.687 348.776 208.643 347.732 214.186 345.81C229.793 340.405 242.153 328.046 247.558 312.438C249.482 306.893 250.525 300.94 250.525 294.74C250.525 288.541 249.482 282.587 247.558 277.042C251.295 279.237 255.201 281.178 259.249 282.845C259.982 286.737 260.349 290.71 260.349 294.74C260.349 298.77 259.982 302.743 259.249 306.636C258.438 310.957 257.176 315.177 255.471 319.264C255.425 319.374 255.38 319.484 255.333 319.594C253.736 323.377 251.755 327.026 249.448 330.439C247.161 333.822 244.536 337.004 241.644 339.896C238.751 342.788 235.568 345.414 232.187 347.699C228.774 350.006 225.125 351.986 221.342 353.586C221.234 353.633 221.126 353.678 221.016 353.723C216.927 355.427 212.707 356.688 208.386 357.504C204.493 358.235 200.52 358.602 196.49 358.602C192.46 358.602 188.487 358.235 184.595 357.504C182.93 353.456 180.989 349.55 178.794 345.812V345.81ZM279.776 300.845C279.529 304.29 279.069 307.713 278.401 311.075C278.372 311.244 278.336 311.413 278.301 311.582C277.592 315.05 276.656 318.482 275.505 321.838C274.88 323.664 274.19 325.47 273.442 327.242C272.469 329.537 271.392 331.797 270.213 334.005C268.854 336.554 267.36 339.033 265.743 341.425C262.753 345.85 259.32 350.01 255.539 353.792C251.759 357.572 247.597 361.007 243.174 363.994C240.783 365.609 238.305 367.104 235.755 368.462C233.546 369.645 231.289 370.722 228.994 371.692C227.217 372.443 225.416 373.133 223.59 373.756C220.236 374.907 216.803 375.842 213.333 376.554C213.164 376.587 212.995 376.622 212.824 376.656C209.462 377.322 206.042 377.782 202.597 378.029C200.569 378.177 198.532 378.251 196.492 378.251C194.453 378.251 192.415 378.177 190.387 378.029C189.837 374.606 189.1 371.246 188.187 367.961C190.914 368.27 193.684 368.425 196.492 368.425C199.3 368.425 202.071 368.268 204.798 367.961C208.531 367.543 212.18 366.847 215.725 365.89C220.059 364.723 224.235 363.169 228.214 361.267C243.424 354.002 255.752 341.674 263.018 326.462C264.92 322.483 266.474 318.305 267.641 313.971C268.598 310.428 269.294 306.779 269.712 303.046C270.021 300.321 270.176 297.548 270.176 294.74C270.176 291.932 270.019 289.16 269.712 286.434C272.998 287.348 276.358 288.085 279.78 288.635C279.93 290.665 280.002 292.703 280.002 294.74C280.002 296.778 279.93 298.815 279.78 300.845H279.776ZM299.779 299.786C298.109 299.698 296.427 299.652 294.733 299.652C293.04 299.652 291.36 299.698 289.687 299.786C289.776 298.116 289.821 296.434 289.821 294.74C289.821 293.046 289.776 291.366 289.687 289.694C291.358 289.783 293.04 289.828 294.733 289.828C296.427 289.828 298.107 289.783 299.779 289.694C299.691 291.364 299.646 293.046 299.646 294.74C299.646 296.434 299.691 298.114 299.779 299.786ZM306.629 259.254C302.736 259.987 298.763 260.354 294.733 260.354C290.703 260.354 286.73 259.987 282.838 259.254C278.517 258.442 274.298 257.181 270.209 255.475C270.099 255.43 269.989 255.385 269.879 255.338C266.097 253.74 262.448 251.76 259.035 249.453C255.651 247.166 252.47 244.54 249.578 241.648C246.686 238.756 244.06 235.572 241.775 232.191C239.468 228.778 237.488 225.129 235.888 221.346C235.841 221.238 235.796 221.13 235.751 221.02C234.047 216.931 232.786 212.711 231.97 208.39C231.239 204.497 230.872 200.524 230.872 196.494C230.872 192.464 231.239 188.491 231.97 184.598C236.018 182.934 239.924 180.993 243.662 178.798C241.74 184.341 240.697 190.297 240.697 196.494C240.697 202.691 241.74 208.647 243.662 214.19C249.067 229.798 261.426 242.157 277.033 247.562C282.578 249.486 288.532 250.529 294.731 250.529C300.931 250.529 306.884 249.486 312.429 247.562C310.234 251.3 308.293 255.206 306.627 259.254H306.629ZM335.474 213.699C333.247 218.963 330.058 223.693 325.995 227.756C321.933 231.818 317.204 235.009 311.94 237.233C306.497 239.538 300.707 240.703 294.735 240.703C288.764 240.703 282.973 239.536 277.531 237.233C272.267 235.007 267.537 231.818 263.476 227.756C259.412 223.693 256.223 218.963 253.997 213.699C251.692 208.256 250.527 202.467 250.527 196.494C250.527 190.521 251.694 184.732 253.997 179.289C256.223 174.025 259.412 169.296 263.476 165.232C267.537 161.171 272.267 157.98 277.531 155.755C282.973 153.451 288.764 152.285 294.735 152.285C300.707 152.285 306.497 153.453 311.94 155.755C317.204 157.982 321.933 161.171 325.995 165.232C330.058 169.296 333.247 174.025 335.474 179.289C337.778 184.732 338.944 190.521 338.944 196.494C338.944 202.467 337.776 208.256 335.474 213.699ZM357.494 208.388C353.447 210.052 349.54 211.993 345.803 214.188C347.725 208.645 348.768 202.69 348.768 196.492C348.768 190.295 347.725 184.339 345.803 178.796C340.398 163.189 328.038 150.829 312.431 145.424C306.886 143.5 300.933 142.457 294.733 142.457C288.534 142.457 282.58 143.5 277.035 145.424C279.23 141.687 281.172 137.78 282.838 133.733C286.73 133 290.703 132.632 294.733 132.632C298.763 132.632 302.736 133 306.629 133.733C310.95 134.544 315.168 135.806 319.257 137.511C319.367 137.556 319.477 137.601 319.587 137.649C323.37 139.246 327.019 141.227 330.432 143.534C333.815 145.821 336.996 148.446 339.889 151.338C342.781 154.231 345.406 157.414 347.691 160.795C349.998 164.208 351.979 167.857 353.578 171.64C353.625 171.748 353.671 171.856 353.716 171.966C355.419 176.055 356.681 180.276 357.496 184.597C358.227 188.489 358.595 192.462 358.595 196.492C358.595 200.522 358.227 204.495 357.496 208.388H357.494ZM311.068 114.58C311.237 114.61 311.405 114.645 311.574 114.681C315.043 115.39 318.475 116.325 321.831 117.477C323.657 118.102 325.462 118.791 327.235 119.54C329.53 120.513 331.789 121.589 333.998 122.768C336.546 124.128 339.026 125.621 341.417 127.238C345.842 130.229 350.002 133.662 353.785 137.442C357.565 141.223 361 145.385 363.986 149.808C365.601 152.199 367.097 154.677 368.454 157.227C369.637 159.438 370.714 161.695 371.685 163.99C372.435 165.767 373.125 167.569 373.748 169.394C374.899 172.75 375.835 176.183 376.546 179.651C376.579 179.82 376.615 179.989 376.648 180.16C377.314 183.522 377.774 186.943 378.022 190.387C378.169 192.415 378.244 194.453 378.244 196.492C378.244 198.532 378.169 200.569 378.022 202.597C374.599 203.147 371.239 203.884 367.953 204.798C368.262 202.071 368.417 199.3 368.417 196.492C368.417 193.684 368.26 190.914 367.953 188.186C367.535 184.453 366.839 180.804 365.882 177.259C364.715 172.925 363.161 168.749 361.259 164.77C353.995 149.56 341.667 137.232 326.455 129.966C322.476 128.064 318.298 126.51 313.964 125.342C310.421 124.385 306.772 123.69 303.039 123.271C300.314 122.963 297.541 122.808 294.733 122.808C291.925 122.808 289.153 122.965 286.428 123.271C287.341 119.986 288.078 116.626 288.628 113.203C290.658 113.054 292.696 112.981 294.733 112.981C296.771 112.981 298.809 113.054 300.838 113.203C304.283 113.451 307.706 113.91 311.068 114.579V114.58ZM299.779 103.292C298.109 103.204 296.427 103.158 294.733 103.158C293.04 103.158 291.36 103.204 289.687 103.292C289.776 101.622 289.821 99.9398 289.821 98.2461C289.821 96.5523 289.776 94.8723 289.687 93.2002C291.358 93.2886 293.04 93.3338 294.733 93.3338C296.427 93.3338 298.107 93.2886 299.779 93.2002C299.691 94.8703 299.646 96.5523 299.646 98.2461C299.646 99.9398 299.691 101.62 299.779 103.292Z" fill="#F8D89F"/>
<path d="M358.595 98.2461C358.595 117.237 373.99 132.632 392.981 132.632V122.808C386.42 122.808 380.252 120.253 375.613 115.612C370.974 110.973 368.417 104.805 368.417 98.2441C368.417 91.6832 370.972 85.5153 375.613 80.8762C380.252 76.237 386.42 73.6806 392.981 73.6806V63.856C373.99 63.856 358.595 79.2512 358.595 98.2421V98.2461Z" fill="#F8D89F"/>
<path d="M294.735 181.755C286.597 181.755 279.999 188.353 279.999 196.492C279.999 204.631 286.597 211.229 294.735 211.229C302.874 211.229 309.472 204.631 309.472 196.492C309.472 188.353 302.874 181.755 294.735 181.755ZM294.735 201.402C292.028 201.402 289.823 199.2 289.823 196.49C289.823 193.781 292.028 191.578 294.735 191.578C297.443 191.578 299.648 193.781 299.648 196.49C299.648 199.2 297.443 201.402 294.735 201.402Z" fill="#F8D89F"/>
<path d="M294.735 162.106C275.745 162.106 260.35 177.501 260.35 196.492C260.35 215.483 275.745 230.878 294.735 230.878C313.726 230.878 329.121 215.483 329.121 196.492C329.121 177.501 313.726 162.106 294.735 162.106ZM312.103 213.86C307.464 218.499 301.296 221.056 294.735 221.056C288.175 221.056 282.007 218.501 277.368 213.86C272.728 209.221 270.172 203.053 270.172 196.492C270.172 189.931 272.726 183.763 277.368 179.124C282.007 174.485 288.175 171.929 294.735 171.929C301.296 171.929 307.464 174.483 312.103 179.124C316.742 183.763 319.299 189.931 319.299 196.492C319.299 203.053 316.744 209.221 312.103 213.86Z" fill="#F8D89F"/>
<path d="M14.7368 98.2461C14.7368 90.1074 8.13862 83.5092 0 83.5092V93.3338C2.7096 93.3338 4.91225 95.5385 4.91225 98.2461C4.91225 100.954 2.7096 103.158 0 103.158V112.983C8.13862 112.983 14.7368 106.385 14.7368 98.2461Z" fill="#F8D89F"/>
<path d="M34.3858 98.2461C34.3858 79.2551 18.9908 63.86 0 63.86V73.6846C6.56081 73.6846 12.7286 76.239 17.3678 80.8801C22.0069 85.5193 24.5632 91.6872 24.5632 98.2481C24.5632 104.809 22.0089 110.977 17.3678 115.616C12.7286 120.255 6.56081 122.812 0 122.812V132.636C18.9908 132.636 34.3858 117.241 34.3858 98.25V98.2461Z" fill="#F8D89F"/>
<path d="M98.2452 211.229C106.384 211.229 112.982 204.631 112.982 196.492C112.982 188.353 106.384 181.755 98.2452 181.755C90.1066 181.755 83.5084 188.353 83.5084 196.492C83.5084 204.631 90.1066 211.229 98.2452 211.229ZM98.2452 191.582C100.953 191.582 103.157 193.784 103.157 196.494C103.157 199.204 100.953 201.406 98.2452 201.406C95.5376 201.406 93.3329 199.204 93.3329 196.494C93.3329 193.784 95.5376 191.582 98.2452 191.582Z" fill="#F8D89F"/>
<path d="M98.2453 230.878C117.236 230.878 132.631 215.483 132.631 196.492C132.631 177.501 117.236 162.106 98.2453 162.106C79.2546 162.106 63.8596 177.501 63.8596 196.492C63.8596 215.483 79.2546 230.878 98.2453 230.878ZM80.8776 179.124C85.5167 174.485 91.6845 171.929 98.2453 171.929C104.806 171.929 110.974 174.483 115.613 179.124C120.252 183.763 122.809 189.931 122.809 196.492C122.809 203.053 120.254 209.221 115.613 213.86C110.974 218.499 104.806 221.056 98.2453 221.056C91.6845 221.056 85.5167 218.501 80.8776 213.86C76.2384 209.221 73.6821 203.053 73.6821 196.492C73.6821 189.931 76.2365 183.763 80.8776 179.124Z" fill="#F8D89F"/>
<path d="M378.243 294.738C378.243 302.877 384.842 309.475 392.98 309.475V299.651C390.271 299.651 388.068 297.446 388.068 294.738C388.068 292.031 390.271 289.826 392.98 289.826V280.001C384.842 280.001 378.243 286.6 378.243 294.738Z" fill="#F8D89F"/>
<path d="M358.595 294.738C358.595 313.729 373.99 329.124 392.981 329.124V319.3C386.42 319.3 380.252 316.745 375.613 312.104C370.974 307.465 368.417 301.297 368.417 294.736C368.417 288.175 370.972 282.007 375.613 277.368C380.252 272.729 386.42 270.173 392.981 270.173V260.348C373.99 260.348 358.595 275.743 358.595 294.734V294.738Z" fill="#F8D89F"/>
<path d="M294.735 378.247C286.597 378.247 279.999 384.845 279.999 392.984H289.823C289.823 390.274 292.028 388.072 294.735 388.072C297.443 388.072 299.648 390.274 299.648 392.984H309.472C309.472 384.845 302.874 378.247 294.735 378.247Z" fill="#F8D89F"/>
<path d="M294.735 358.598C275.745 358.598 260.35 373.993 260.35 392.984H270.174C270.174 386.424 272.728 380.256 277.37 375.616C282.009 370.977 288.176 368.421 294.737 368.421C301.298 368.421 307.466 370.975 312.105 375.616C316.744 380.256 319.301 386.424 319.301 392.984H329.125C329.125 373.993 313.73 358.598 294.739 358.598H294.735Z" fill="#F8D89F"/>
<path d="M211.227 294.738C211.227 286.6 204.629 280.001 196.491 280.001C188.352 280.001 181.754 286.6 181.754 294.738C181.754 302.877 188.352 309.475 196.491 309.475C204.629 309.475 211.227 302.877 211.227 294.738ZM191.58 294.738C191.58 292.031 193.783 289.826 196.493 289.826C199.202 289.826 201.405 292.031 201.405 294.738C201.405 297.446 199.202 299.651 196.493 299.651C193.783 299.651 191.58 297.446 191.58 294.738Z" fill="#F8D89F"/>
<path d="M230.876 294.738C230.876 275.747 215.481 260.352 196.49 260.352C177.5 260.352 162.105 275.747 162.105 294.738C162.105 313.729 177.5 329.124 196.49 329.124C215.481 329.124 230.876 313.729 230.876 294.738ZM179.123 312.106C174.483 307.467 171.927 301.299 171.927 294.738C171.927 288.177 174.482 282.01 179.123 277.37C183.762 272.731 189.93 270.175 196.49 270.175C203.051 270.175 209.219 272.729 213.858 277.37C218.497 282.01 221.054 288.177 221.054 294.738C221.054 301.299 218.499 307.467 213.858 312.106C209.219 316.745 203.051 319.302 196.49 319.302C189.93 319.302 183.762 316.747 179.123 312.106Z" fill="#F8D89F"/>
<path d="M98.2452 378.247C90.1066 378.247 83.5084 384.845 83.5084 392.984H93.3329C93.3329 390.274 95.5376 388.072 98.2452 388.072C100.953 388.072 103.157 390.274 103.157 392.984H112.982C112.982 384.845 106.384 378.247 98.2452 378.247Z" fill="#F8D89F"/>
<path d="M98.2453 358.598C79.2546 358.598 63.8596 373.993 63.8596 392.984H73.6841C73.6841 386.424 76.2384 380.256 80.8795 375.616C85.5187 370.977 91.6865 368.421 98.2473 368.421C104.808 368.421 110.976 370.975 115.615 375.616C120.254 380.256 122.811 386.424 122.811 392.984H132.635C132.635 373.993 117.24 358.598 98.2493 358.598H98.2453Z" fill="#F8D89F"/>
<path d="M14.7368 294.738C14.7368 286.6 8.13862 280.001 0 280.001V289.826C2.7096 289.826 4.91225 292.031 4.91225 294.738C4.91225 297.446 2.7096 299.651 0 299.651V309.475C8.13862 309.475 14.7368 302.877 14.7368 294.738Z" fill="#F8D89F"/>
<path d="M34.3858 294.738C34.3858 275.747 18.9908 260.352 0 260.352V270.177C6.56081 270.177 12.7286 272.731 17.3678 277.372C22.0069 282.012 24.5632 288.179 24.5632 294.74C24.5632 301.301 22.0089 307.469 17.3678 312.108C12.7286 316.747 6.56081 319.304 0 319.304V329.128C18.9908 329.128 34.3858 313.733 34.3858 294.742V294.738Z" fill="#F8D89F"/>
</g>
</svg>
