<svg width="200" height="80" viewBox="0 0 200 80" fill="none" xmlns="http://www.w3.org/2000/svg">
<g opacity="0.15">
<path d="M82.496 -10.002C82.496 -0.337372 90.3306 7.49731 99.9951 7.49731C109.66 7.49731 117.494 -0.337372 117.494 -10.002C117.494 -19.6666 109.66 -27.5013 99.9951 -27.5013C90.3306 -27.5013 82.496 -19.6666 82.496 -10.002ZM108.834 -18.8406C111.195 -16.4797 112.495 -13.3408 112.495 -10.002C112.495 -6.66312 111.196 -3.52424 108.834 -1.16334C106.473 1.19757 103.334 2.49851 99.9951 2.49851C96.6563 2.49851 93.5174 1.19857 91.1565 -1.16334C88.7957 -3.52424 87.4947 -6.66312 87.4947 -10.002C87.4947 -13.3408 88.7947 -16.4797 91.1565 -18.8406C93.5174 -21.2015 96.6563 -22.5025 99.9951 -22.5025C103.334 -22.5025 106.473 -21.2025 108.834 -18.8406Z" fill="#FCEBCF"/>
<path d="M158.305 -18.3147C158.32 -18.4007 158.338 -18.4867 158.356 -18.5727C158.717 -20.3376 159.193 -22.0845 159.779 -23.7924C160.097 -24.7214 160.448 -25.6404 160.829 -26.5423C161.324 -27.7103 161.872 -28.8602 162.472 -29.9842C163.164 -31.2811 163.924 -32.5431 164.747 -33.76C166.269 -36.012 168.016 -38.1289 169.939 -40.0538C171.863 -41.9777 173.981 -43.7257 176.232 -45.2456C177.449 -46.0676 178.71 -46.8285 180.008 -47.5195C181.132 -48.1215 182.281 -48.6695 183.449 -49.1634C184.353 -49.5454 185.27 -49.8964 186.199 -50.2134C187.906 -50.7994 189.653 -51.2753 191.418 -51.6373C191.504 -51.6543 191.59 -51.6723 191.677 -51.6893C193.388 -52.0283 195.129 -52.2623 196.882 -52.3883C197.914 -52.4633 198.951 -52.5013 199.989 -52.5013V-57.5001C199.128 -57.5001 198.272 -57.4771 197.421 -57.4321C197.466 -58.2821 197.489 -59.138 197.489 -60H192.489C192.489 -58.962 192.451 -57.9251 192.376 -56.8931C190.634 -56.6131 188.925 -56.2382 187.253 -55.7732C187.41 -57.1611 187.489 -58.5711 187.489 -60H182.489C182.489 -57.9491 182.302 -55.9272 181.93 -53.9462C179.87 -53.0993 177.882 -52.1113 175.98 -50.9944C176.958 -53.8152 177.489 -56.8461 177.489 -60H172.488C172.488 -56.9601 171.894 -54.0142 170.722 -51.2444C169.59 -48.5655 167.967 -46.1586 165.899 -44.0906C163.832 -42.0237 161.425 -40.3998 158.746 -39.2678C155.976 -38.0949 153.029 -37.5019 149.99 -37.5019C146.952 -37.5019 144.005 -38.0959 141.235 -39.2678C138.556 -40.4008 136.149 -42.0237 134.082 -44.0906C132.014 -46.1586 130.391 -48.5655 129.259 -51.2444C128.086 -54.0142 127.493 -56.9601 127.493 -60H122.492C122.492 -56.8461 123.023 -53.8152 124.001 -50.9944C126.752 -43.0517 133.041 -36.7619 140.984 -34.011C143.806 -33.0321 146.836 -32.5011 149.99 -32.5011C153.145 -32.5011 156.175 -33.0321 158.997 -34.011C157.88 -32.1091 156.892 -30.1212 156.044 -28.0613C154.063 -27.6883 152.041 -27.5013 149.99 -27.5013C147.94 -27.5013 145.918 -27.6883 143.937 -28.0613C141.738 -28.4743 139.591 -29.1162 137.51 -29.9842C137.454 -30.0072 137.398 -30.0302 137.342 -30.0542C135.417 -30.8672 133.56 -31.8751 131.823 -33.0491C130.102 -34.213 128.483 -35.549 127.011 -37.0209C125.539 -38.4929 124.203 -40.1128 123.04 -41.8337C121.866 -43.5707 120.858 -45.4276 120.044 -47.3525C120.02 -47.4075 119.997 -47.4625 119.974 -47.5185C119.107 -49.5994 118.465 -51.7473 118.05 -53.9462C117.678 -55.9272 117.491 -57.9491 117.491 -60H112.491C112.491 -58.5701 112.571 -57.1611 112.727 -55.7732C112.94 -53.8732 113.294 -52.0163 113.781 -50.2124C114.375 -48.0065 115.166 -45.8816 116.134 -43.8566C119.831 -36.116 126.105 -29.8422 133.846 -26.1444C135.871 -25.1764 137.997 -24.3854 140.203 -23.7914C142.006 -23.3045 143.863 -22.9505 145.763 -22.7375C147.15 -22.5805 148.561 -22.5015 149.99 -22.5015C151.418 -22.5015 152.829 -22.5815 154.216 -22.7375C153.751 -21.0656 153.376 -19.3556 153.096 -17.6137C152.063 -17.5377 151.026 -17.5007 149.99 -17.5007C148.953 -17.5007 147.916 -17.5377 146.883 -17.6137C145.13 -17.7397 143.388 -17.9737 141.677 -18.3137C141.591 -18.3287 141.505 -18.3467 141.419 -18.3647C139.654 -18.7257 137.907 -19.2016 136.199 -19.7876C135.27 -20.1056 134.351 -20.4566 133.449 -20.8376C132.281 -21.3325 131.131 -21.8805 130.008 -22.4805C128.711 -23.1725 127.449 -23.9324 126.232 -24.7554C123.98 -26.2774 121.863 -28.0243 119.938 -29.9482C118.014 -31.8721 116.266 -33.99 114.746 -36.2409C113.924 -37.4579 113.163 -38.7189 112.472 -40.0168C111.87 -41.1418 111.322 -42.2907 110.828 -43.4587C110.446 -44.3626 110.095 -45.2796 109.779 -46.2086C109.193 -47.9165 108.717 -49.6634 108.355 -51.4283C108.338 -51.5143 108.32 -51.6003 108.303 -51.6873C107.964 -53.3983 107.73 -55.1392 107.604 -56.8921C107.529 -57.9241 107.491 -58.961 107.491 -59.999H102.491C102.491 -59.138 102.514 -58.2821 102.559 -57.4311C101.709 -57.4761 100.853 -57.4991 99.991 -57.4991C99.1291 -57.4991 98.2741 -57.4761 97.4231 -57.4311C97.4681 -58.2811 97.4911 -59.137 97.4911 -59.999H92.4914C92.4914 -58.961 92.4534 -57.9241 92.3784 -56.8921C90.6365 -56.6121 88.9266 -56.2372 87.2546 -55.7722C87.4116 -57.1601 87.4906 -58.5701 87.4906 -59.999H82.4909C82.4909 -57.9481 82.3039 -55.9262 81.9319 -53.9452C79.872 -53.0983 77.8841 -52.1103 75.9822 -50.9934C76.9602 -53.8142 77.4911 -56.8451 77.4911 -59.999H72.4904C72.4904 -56.9591 71.8964 -54.0132 70.7245 -51.2434C69.5915 -48.5645 67.9686 -46.1576 65.9007 -44.0896C63.8338 -42.0227 61.4269 -40.3988 58.7481 -39.2668C55.9782 -38.0939 53.0313 -37.5009 49.9925 -37.5009C46.9537 -37.5009 44.0068 -38.0949 41.2369 -39.2668C38.5581 -40.3998 36.1512 -42.0227 34.0843 -44.0896C32.0164 -46.1576 30.3935 -48.5645 29.2605 -51.2434C28.0876 -54.0132 27.4946 -56.9591 27.4946 -59.999H22.4939C22.4939 -56.8451 23.0248 -53.8142 24.0028 -50.9934C26.7537 -43.0507 33.0434 -36.7609 40.986 -34.01C43.8078 -33.0311 46.8377 -32.5001 49.9925 -32.5001C53.1473 -32.5001 56.1772 -33.0311 58.9991 -34.01C57.8821 -32.1081 56.8942 -30.1202 56.0462 -28.0603C54.0653 -27.6873 52.0434 -27.5003 49.9925 -27.5003C47.9416 -27.5003 45.9197 -27.6873 43.9388 -28.0603C41.7399 -28.4733 39.593 -29.1152 37.5121 -29.9832C37.4561 -30.0062 37.4001 -30.0292 37.3441 -30.0532C35.4192 -30.8662 33.5623 -31.8741 31.8254 -33.0481C30.1035 -34.212 28.4846 -35.548 27.0127 -37.0199C25.5407 -38.4919 24.2048 -40.1118 23.0418 -41.8327C21.8679 -43.5697 20.86 -45.4266 20.046 -47.3515C20.022 -47.4065 19.999 -47.4615 19.976 -47.5175C19.109 -49.5984 18.4671 -51.7463 18.0521 -53.9452C17.6801 -55.9262 17.4931 -57.9481 17.4931 -59.999H12.4934C12.4934 -58.5691 12.5734 -57.1601 12.7294 -55.7722C12.9424 -53.8722 13.2963 -52.0153 13.7833 -50.2114C14.3773 -48.0055 15.1682 -45.8806 16.1362 -43.8556C19.833 -36.115 26.1067 -29.8412 33.8483 -26.1434C35.8732 -25.1754 37.9991 -24.3844 40.205 -23.7905C42.0079 -23.3035 43.8648 -22.9495 45.7647 -22.7365C47.1516 -22.5795 48.5626 -22.5005 49.9915 -22.5005C51.4204 -22.5005 52.8314 -22.5805 54.2183 -22.7365C53.7533 -21.0646 53.3783 -19.3546 53.0983 -17.6127C52.0654 -17.5367 51.0285 -17.4997 49.9915 -17.4997C48.9546 -17.4997 47.9176 -17.5367 46.8847 -17.6127C45.1317 -17.7387 43.3898 -17.9727 41.6789 -18.3127C41.5929 -18.3277 41.5069 -18.3457 41.4209 -18.3637C39.656 -18.7247 37.9091 -19.2006 36.2012 -19.7866C35.2722 -20.1046 34.3533 -20.4556 33.4513 -20.8366C32.2834 -21.3315 31.1334 -21.8795 30.0095 -22.4795C28.7126 -23.1715 27.4506 -23.9314 26.2337 -24.7544C23.9818 -26.2763 21.8649 -28.0233 19.94 -29.9472C18.0161 -31.8711 16.2682 -33.989 14.7483 -36.24C13.9263 -37.4569 13.1653 -38.7178 12.4744 -40.0158C11.8724 -41.1408 11.3244 -42.2897 10.8305 -43.4577C10.4485 -44.3616 10.0975 -45.2786 9.78051 -46.2076C9.19454 -47.9155 8.71856 -49.6624 8.35658 -51.4273C8.33958 -51.5133 8.32158 -51.5993 8.30459 -51.6863C7.9656 -53.3973 7.73161 -55.1382 7.60562 -56.8911C7.53062 -57.9231 7.49263 -58.96 7.49263 -59.998H2.49988C2.49988 -59.137 2.52287 -58.2811 2.56787 -57.4301C1.71791 -57.4751 0.861957 -57.4981 0 -57.4981V-52.4983C1.03795 -52.4983 2.0749 -52.4603 3.10684 -52.3853C3.38683 -50.6434 3.76181 -48.9334 4.22679 -47.2615C2.83886 -47.4185 1.42893 -47.4975 0 -47.4975V-42.4977C2.0509 -42.4977 4.0728 -42.3107 6.0537 -41.9387C6.90066 -39.8788 7.88861 -37.8909 9.00555 -35.989C6.18469 -36.9669 3.15384 -37.4979 0 -37.4979V-32.4971C3.03985 -32.4971 5.9857 -31.9031 8.75556 -30.7312C11.4344 -29.5982 13.8413 -27.9753 15.9092 -25.9074C17.9761 -23.8404 19.6 -21.4335 20.732 -18.7547C21.9049 -15.9848 22.4979 -13.0379 22.4979 -9.999C22.4979 -6.96012 21.9039 -4.01324 20.732 -1.24335C19.599 1.43555 17.9761 3.84245 15.9092 5.90936C13.8413 7.97728 11.4344 9.60021 8.75556 10.7332C5.9857 11.9061 3.03985 12.4991 0 12.4991V17.4999C3.15384 17.4999 6.18469 16.9689 9.00555 15.991C16.9482 13.2401 23.2378 6.95032 25.9887 -0.992363C26.9677 -3.81425 27.4986 -6.84413 27.4986 -9.999C27.4986 -13.1539 26.9677 -16.1838 25.9887 -19.0056C27.8906 -17.8887 29.8785 -16.9007 31.9384 -16.0528C32.3114 -14.0718 32.4984 -12.0499 32.4984 -9.999C32.4984 -7.94808 32.3114 -5.92616 31.9384 -3.94524C31.5254 -1.74633 30.8835 0.401588 30.0155 2.4815C29.9925 2.5375 29.9695 2.5935 29.9455 2.6495C29.1325 4.57442 28.1246 6.43134 26.9507 8.16827C25.7877 9.89021 24.4508 11.5091 22.9789 12.9811C21.5069 14.453 19.887 15.789 18.1661 16.9519C16.4292 18.1259 14.5723 19.1338 12.6474 19.9478C12.5924 19.9718 12.5374 19.9948 12.4814 20.0178C10.4005 20.8848 8.25259 21.5267 6.0537 21.9417C4.0728 22.3137 2.0509 22.5007 0 22.5007V27.5005C1.42993 27.5005 2.83886 27.4205 4.22679 27.2645C6.12669 27.0515 7.9846 26.6975 9.78751 26.2106C11.9934 25.6166 14.1183 24.8256 16.1432 23.8576C23.8838 20.1608 30.1575 13.887 33.8553 6.14536C34.8233 4.12043 35.6142 1.99452 36.2082 -0.211395C36.6952 -2.01432 37.0491 -3.87125 37.2621 -5.77117C37.4191 -7.15812 37.4981 -8.56906 37.4981 -9.998C37.4981 -11.4269 37.4181 -12.8379 37.2621 -14.2248C38.9341 -13.7598 40.644 -13.3849 42.3859 -13.1049C42.4619 -12.0719 42.4989 -11.035 42.4989 -9.998C42.4989 -8.96104 42.4619 -7.92408 42.3859 -6.89112C42.2599 -5.1382 42.0259 -3.39627 41.6859 -1.68533C41.6709 -1.59934 41.6529 -1.51334 41.6349 -1.42734C41.2739 0.337585 40.798 2.08452 40.212 3.79245C39.894 4.72141 39.543 5.64037 39.162 6.54234C38.6671 7.7103 38.1191 8.86024 37.5191 9.9842C36.8272 11.2812 36.0672 12.5431 35.2442 13.76C33.7223 16.012 31.9754 18.1289 30.0515 20.0538C28.1276 21.9777 26.0097 23.7256 23.7588 25.2456C22.5419 26.0676 21.2809 26.8285 19.983 27.5195C18.8591 28.1215 17.7101 28.6694 16.5422 29.1634C15.6382 29.5454 14.7213 29.8964 13.7923 30.2134C12.0854 30.7994 10.3385 31.2753 8.57257 31.6373C8.48658 31.6543 8.40058 31.6723 8.31358 31.6893C6.60267 32.0283 4.86176 32.2623 3.10884 32.3883C2.0769 32.4633 1.03995 32.5013 0.0019999 32.5013V37.5011C0.862957 37.5011 1.71891 37.4781 2.56987 37.4331C2.52487 38.2831 2.50187 39.139 2.50187 40.001C2.50187 40.863 2.52487 41.7179 2.56987 42.5689C1.71991 42.5239 0.863957 42.5009 0.0019999 42.5009V47.5007C1.03995 47.5007 2.0769 47.5387 3.10884 47.6137C3.38883 49.3556 3.76381 51.0656 4.22879 52.7375C2.84086 52.5805 1.43093 52.5015 0.0019999 52.5015V57.5013C2.0529 57.5013 4.0748 57.6883 6.0557 58.0603C6.90266 60.1202 7.89061 62.1081 9.00755 64.01C6.18669 63.0321 3.15584 62.5011 0.0019999 62.5011V67.5019C3.04185 67.5019 5.9877 68.0959 8.75756 69.2678C11.4364 70.4008 13.8433 72.0237 15.9112 74.0916C17.9781 76.1586 19.602 78.5655 20.734 81.2444C21.9069 84.0142 22.4999 86.9611 22.4999 90C22.4999 93.0389 21.9059 95.9858 20.734 98.7556C19.601 101.435 17.9781 103.841 15.9112 105.908C13.8433 107.976 11.4364 109.599 8.75756 110.732C5.9877 111.905 3.04185 112.498 0.0019999 112.498V117.499C3.15584 117.499 6.18669 116.968 9.00755 115.99C16.9502 113.239 23.2398 106.949 25.9907 99.0066C26.9697 96.1848 27.5006 93.1549 27.5006 90C27.5006 86.8451 26.9697 83.8152 25.9907 80.9934C27.8926 82.1103 29.8805 83.0983 31.9404 83.9462C32.3134 85.9272 32.5004 87.9491 32.5004 90C32.5004 92.0509 32.3134 94.0728 31.9404 96.0538C31.5274 98.2527 30.8855 100.401 30.0175 102.48C29.9945 102.536 29.9715 102.592 29.9475 102.648C29.1345 104.573 28.1266 106.43 26.9527 108.167C25.7897 109.889 24.4528 111.508 22.9809 112.98C21.5089 114.452 19.889 115.788 18.1681 116.951C16.4312 118.125 14.5743 119.133 12.6494 119.947C12.5944 119.971 12.5394 119.994 12.4834 120.017C10.4025 120.884 8.25459 121.526 6.0557 121.941C4.0748 122.313 2.0529 122.5 0.0019999 122.5V127.499C1.43193 127.499 2.84086 127.419 4.22879 127.264C6.12869 127.051 7.9866 126.697 9.78951 126.21C11.9954 125.616 14.1203 124.825 16.1452 123.857C23.8858 120.16 30.1595 113.886 33.8573 106.144C34.8253 104.119 35.6162 101.994 36.2102 99.7876C36.6972 97.9847 37.0511 96.1277 37.2641 94.2278C37.4211 92.8409 37.5001 91.4299 37.5001 90.001C37.5001 88.5721 37.4201 87.1611 37.2641 85.7742C38.9361 86.2392 40.646 86.6141 42.3879 86.8941C42.4639 87.9271 42.5009 88.964 42.5009 90.001C42.5009 91.0379 42.4639 92.0749 42.3879 93.1079C42.2619 94.8608 42.0279 96.6027 41.6879 98.3137C41.6729 98.3997 41.6549 98.4857 41.6369 98.5717C41.2759 100.337 40.8 102.084 40.214 103.791C39.896 104.72 39.545 105.639 39.164 106.541C38.6691 107.709 38.1211 108.859 37.5211 109.983C36.8292 111.28 36.0692 112.542 35.2462 113.759C33.7243 116.011 31.9774 118.128 30.0535 120.053C28.1296 121.977 26.0117 123.725 23.7608 125.245C22.5439 126.067 21.2829 126.828 19.985 127.518C18.8611 128.12 17.7121 128.668 16.5442 129.162C15.6402 129.544 14.7233 129.895 13.7943 130.212C12.0874 130.798 10.3405 131.274 8.57457 131.636C8.48858 131.653 8.40258 131.671 8.31559 131.688C6.60467 132.027 4.86376 132.261 3.11084 132.387C2.0789 132.462 1.04195 132.5 0.0039998 132.5V137.5C0.864957 137.5 1.72091 137.477 2.57187 137.432C2.52687 138.282 2.50388 139.138 2.50388 140H7.50362C7.50362 138.962 7.54162 137.925 7.61662 136.893C9.35853 136.613 11.0684 136.238 12.7404 135.773C12.5834 137.161 12.5044 138.571 12.5044 140H17.5041C17.5041 137.949 17.6911 135.927 18.0631 133.946C20.123 133.099 22.1109 132.111 24.0128 130.994C23.0348 133.815 22.5039 136.846 22.5039 140H27.5046C27.5046 136.96 28.0986 134.014 29.2705 131.244C30.4035 128.565 32.0264 126.159 34.0943 124.091C36.1612 122.024 38.5681 120.4 41.2469 119.268C44.0168 118.095 46.9636 117.502 50.0025 117.502C53.0413 117.502 55.9882 118.096 58.7581 119.268C61.4369 120.401 63.8438 122.024 65.9107 124.091C67.9786 126.159 69.6015 128.565 70.7345 131.244C71.9074 134.014 72.5004 136.96 72.5004 140H77.5011C77.5011 136.846 76.9702 133.815 75.9922 130.994C73.2413 123.052 66.9517 116.762 59.009 114.011C56.1872 113.032 53.1573 112.501 50.0025 112.501C46.8477 112.501 43.8178 113.032 40.996 114.011C42.1129 112.109 43.1008 110.121 43.9488 108.061C45.9297 107.688 47.9516 107.501 50.0025 107.501C52.0534 107.501 54.0753 107.688 56.0562 108.061C58.2551 108.474 60.402 109.116 62.4829 109.984C62.5389 110.007 62.5949 110.03 62.6509 110.054C64.5758 110.867 66.4327 111.875 68.1696 113.049C69.8915 114.213 71.5104 115.549 72.9824 117.021C74.4543 118.493 75.7902 120.113 76.9532 121.834C78.1271 123.571 79.135 125.428 79.949 127.353C79.973 127.408 79.996 127.463 80.019 127.518C80.886 129.599 81.5279 131.747 81.9429 133.946C82.3149 135.927 82.5019 137.949 82.5019 140H87.5016C87.5016 138.57 87.4216 137.161 87.2656 135.773C87.0527 133.873 86.6987 132.016 86.2117 130.212C85.6177 128.006 84.8268 125.882 83.8588 123.857C80.162 116.116 73.8883 109.842 66.1467 106.144C64.1218 105.176 61.9959 104.385 59.79 103.791C57.9871 103.304 56.1302 102.95 54.2303 102.737C52.8434 102.58 51.4324 102.501 50.0035 102.501C48.5746 102.501 47.1636 102.581 45.7767 102.737C46.2417 101.066 46.6167 99.3556 46.8967 97.6137C47.9296 97.5377 48.9666 97.5007 50.0035 97.5007C51.0404 97.5007 52.0774 97.5377 53.1103 97.6137C54.8633 97.7397 56.6052 97.9737 58.3161 98.3137C58.4021 98.3287 58.4881 98.3467 58.5741 98.3647C60.339 98.7256 62.0859 99.2016 63.7938 99.7876C64.7228 100.106 65.6417 100.457 66.5437 100.838C67.7116 101.333 68.8616 101.881 69.9855 102.48C71.2824 103.172 72.5444 103.932 73.7613 104.755C76.0132 106.277 78.1301 108.024 80.055 109.948C81.9789 111.872 83.7268 113.99 85.2467 116.241C86.0687 117.458 86.8297 118.719 87.5206 120.017C88.1226 121.142 88.6706 122.291 89.1645 123.459C89.5465 124.363 89.8975 125.28 90.2145 126.209C90.8005 127.916 91.2764 129.663 91.6384 131.428C91.6554 131.514 91.6734 131.6 91.6904 131.687C92.0294 133.398 92.2634 135.139 92.3894 136.892C92.4644 137.924 92.5024 138.961 92.5024 139.999H97.5021C97.5021 139.138 97.4791 138.282 97.4341 137.431C98.2841 137.476 99.14 137.499 100.002 137.499C100.864 137.499 101.719 137.476 102.57 137.431C102.525 138.281 102.502 139.137 102.502 139.999H107.502C107.502 138.961 107.54 137.924 107.615 136.892C109.357 136.612 111.066 136.237 112.738 135.772C112.581 137.16 112.502 138.57 112.502 139.999H117.502C117.502 137.948 117.689 135.926 118.061 133.945C120.121 133.098 122.109 132.11 124.011 130.993C123.033 133.814 122.502 136.845 122.502 139.999H127.503C127.503 136.959 128.097 134.013 129.269 131.243C130.401 128.564 132.024 126.158 134.092 124.09C136.159 122.023 138.566 120.399 141.245 119.267C144.015 118.094 146.962 117.501 150.001 117.501C153.039 117.501 155.986 118.095 158.756 119.267C161.435 120.4 163.842 122.023 165.909 124.09C167.977 126.158 169.6 128.564 170.732 131.243C171.905 134.013 172.498 136.959 172.498 139.999H177.499C177.499 136.845 176.968 133.814 175.99 130.993C173.239 123.051 166.95 116.761 159.007 114.01C156.185 113.031 153.155 112.5 150.001 112.5C146.846 112.5 143.816 113.031 140.994 114.01C142.111 112.108 143.099 110.12 143.947 108.06C145.928 107.687 147.95 107.5 150.001 107.5C152.051 107.5 154.073 107.687 156.054 108.06C158.253 108.473 160.4 109.115 162.481 109.983C162.537 110.006 162.593 110.029 162.649 110.053C164.574 110.866 166.431 111.874 168.168 113.048C169.89 114.212 171.508 115.548 172.98 117.02C174.452 118.492 175.788 120.112 176.951 121.833C178.125 123.57 179.133 125.427 179.947 127.352C179.971 127.406 179.994 127.462 180.017 127.518C180.884 129.598 181.526 131.746 181.941 133.945C182.313 135.926 182.5 137.948 182.5 139.999H187.5C187.5 138.569 187.42 137.16 187.264 135.772C187.051 133.872 186.697 132.015 186.21 130.211C185.616 128.005 184.825 125.881 183.857 123.856C180.16 116.115 173.886 109.841 166.145 106.143C164.12 105.175 161.994 104.384 159.788 103.79C157.985 103.303 156.128 102.949 154.228 102.736C152.841 102.579 151.43 102.5 150.001 102.5C148.573 102.5 147.162 102.581 145.775 102.736C146.24 101.065 146.615 99.3546 146.895 97.6127C147.928 97.5367 148.965 97.4997 150.001 97.4997C151.038 97.4997 152.075 97.5367 153.108 97.6127C154.861 97.7387 156.603 97.9727 158.314 98.3127C158.4 98.3277 158.486 98.3457 158.572 98.3637C160.337 98.7246 162.084 99.2006 163.792 99.7866C164.721 100.105 165.64 100.456 166.542 100.837C167.71 101.332 168.86 101.88 169.984 102.48C171.28 103.171 172.542 103.931 173.759 104.754C176.011 106.276 178.128 108.023 180.053 109.947C181.977 111.871 183.725 113.989 185.245 116.24C186.067 117.457 186.828 118.718 187.519 120.016C188.121 121.141 188.669 122.29 189.163 123.458C189.545 124.362 189.896 125.279 190.212 126.208C190.798 127.915 191.274 129.662 191.636 131.427C191.653 131.513 191.671 131.599 191.688 131.686C192.027 133.397 192.261 135.138 192.387 136.891C192.462 137.923 192.5 138.96 192.5 139.998H197.5C197.5 139.137 197.477 138.281 197.432 137.43C198.282 137.475 199.138 137.498 200 137.498V132.498C198.962 132.498 197.925 132.46 196.893 132.385C196.613 130.643 196.238 128.933 195.773 127.262C197.161 127.419 198.571 127.498 200 127.498V122.498C197.949 122.498 195.927 122.311 193.946 121.939C193.099 119.879 192.111 117.891 190.994 115.989C193.815 116.967 196.846 117.498 200 117.498V112.497C196.96 112.497 194.014 111.903 191.244 110.731C188.566 109.598 186.159 107.975 184.091 105.907C182.024 103.84 180.4 101.434 179.268 98.7547C178.095 95.9848 177.502 93.0379 177.502 89.999C177.502 86.9601 178.096 84.0132 179.268 81.2433C180.401 78.5645 182.024 76.1575 184.091 74.0906C186.159 72.0227 188.566 70.3998 191.244 69.2668C194.014 68.0939 196.96 67.5009 200 67.5009V62.5001C196.846 62.5001 193.815 63.0311 190.994 64.009C183.052 66.7599 176.762 73.0497 174.011 80.9924C173.032 83.8142 172.501 86.8441 172.501 89.999C172.501 93.1539 173.032 96.1837 174.011 99.0056C172.109 97.8887 170.121 96.9007 168.062 96.0527C167.689 94.0718 167.502 92.0499 167.502 89.999C167.502 87.9481 167.689 85.9262 168.062 83.9452C168.475 81.7463 169.117 79.5994 169.985 77.5185C170.008 77.4625 170.031 77.4065 170.055 77.3505C170.867 75.4256 171.875 73.5687 173.049 71.8317C174.213 70.1098 175.549 68.4909 177.021 67.0189C178.493 65.547 180.113 64.211 181.834 63.0481C183.571 61.8741 185.428 60.8662 187.353 60.0522C187.408 60.0282 187.463 60.0052 187.519 59.9822C189.6 59.1152 191.747 58.4733 193.946 58.0583C195.927 57.6863 197.949 57.4993 200 57.4993V52.4995C198.57 52.4995 197.161 52.5795 195.773 52.7355C193.873 52.9485 192.016 53.3025 190.212 53.7894C188.007 54.3834 185.882 55.1744 183.857 56.1423C176.116 59.8392 169.843 66.113 166.145 73.8546C165.177 75.8796 164.386 78.0055 163.792 80.2114C163.305 82.0143 162.951 83.8712 162.738 85.7712C162.581 87.1581 162.502 88.5691 162.502 89.998C162.502 91.4269 162.582 92.8379 162.738 94.2248C161.066 93.7599 159.356 93.3849 157.614 93.1049C157.538 92.0719 157.501 91.035 157.501 89.998C157.501 88.961 157.538 87.9241 157.614 86.8911C157.74 85.1382 157.974 83.3963 158.314 81.6853C158.329 81.5993 158.347 81.5133 158.365 81.4273C158.726 79.6624 159.202 77.9155 159.788 76.2076C160.106 75.2786 160.457 74.3596 160.838 73.4577C161.333 72.2897 161.881 71.1398 162.481 70.0158C163.173 68.7188 163.933 67.4569 164.756 66.2399C166.278 63.988 168.025 61.8711 169.949 59.9462C171.872 58.0223 173.99 56.2743 176.241 54.7544C177.458 53.9324 178.719 53.1715 180.017 52.4805C181.141 51.8785 182.29 51.3306 183.458 50.8366C184.362 50.4546 185.279 50.1036 186.208 49.7866C187.915 49.2006 189.662 48.7247 191.427 48.3627C191.513 48.3457 191.599 48.3277 191.686 48.3107C193.397 47.9717 195.138 47.7377 196.891 47.6117C197.923 47.5367 198.96 47.4987 199.998 47.4987V42.4989C199.137 42.4989 198.281 42.5219 197.43 42.5669C197.475 41.7169 197.498 40.861 197.498 39.999C197.498 39.137 197.475 38.2821 197.43 37.4311C198.28 37.4761 199.136 37.4991 199.998 37.4991V32.4993C198.96 32.4993 197.923 32.4613 196.891 32.3863C196.611 30.6444 196.236 28.9344 195.771 27.2625C197.159 27.4195 198.569 27.4985 199.998 27.4985V22.4987C197.947 22.4987 195.925 22.3117 193.944 21.9397C193.097 19.8798 192.109 17.8919 190.992 15.99C193.813 16.9679 196.844 17.4989 199.998 17.4989V12.4981C196.958 12.4981 194.012 11.9041 191.242 10.7322C188.564 9.59921 186.157 7.97628 184.089 5.90836C182.022 3.84145 180.398 1.43454 179.266 -1.24435C178.093 -4.01424 177.5 -6.96112 177.5 -10C177.5 -13.0389 178.094 -15.9858 179.266 -18.7556C180.399 -21.4345 182.022 -23.8414 184.089 -25.9084C186.157 -27.9763 188.564 -29.5992 191.242 -30.7322C194.012 -31.9051 196.958 -32.4981 199.998 -32.4981V-37.4989C196.844 -37.4989 193.813 -36.9679 190.992 -35.99C183.05 -33.2391 176.76 -26.9493 174.009 -19.0066C173.03 -16.1847 172.499 -13.1549 172.499 -10C172.499 -6.84513 173.03 -3.81524 174.009 -0.993359C172.107 -2.11031 170.12 -3.09828 168.06 -3.94624C167.687 -5.92716 167.5 -7.94908 167.5 -10C167.5 -12.0509 167.687 -14.0728 168.06 -16.0538C168.473 -18.2527 169.115 -20.3996 169.983 -22.4805C170.006 -22.5365 170.029 -22.5925 170.053 -22.6485C170.865 -24.5734 171.873 -26.4303 173.047 -28.1673C174.211 -29.8892 175.547 -31.5081 177.019 -32.9801C178.491 -34.452 180.111 -35.788 181.832 -36.9509C183.569 -38.1249 185.426 -39.1328 187.351 -39.9468C187.406 -39.9708 187.461 -39.9938 187.517 -40.0168C189.598 -40.8838 191.745 -41.5257 193.944 -41.9407C195.925 -42.3127 197.947 -42.4997 199.998 -42.4997V-47.4995C198.568 -47.4995 197.159 -47.4195 195.771 -47.2635C193.871 -47.0505 192.014 -46.6965 190.21 -46.2096C188.005 -45.6156 185.88 -44.8246 183.855 -43.8566C176.114 -40.1598 169.841 -33.886 166.143 -26.1444C165.175 -24.1194 164.384 -21.9935 163.79 -19.7876C163.303 -17.9847 162.949 -16.1278 162.736 -14.2278C162.579 -12.8409 162.5 -11.4299 162.5 -10.001C162.5 -8.57206 162.58 -7.16111 162.736 -5.77417C161.064 -6.23915 159.354 -6.61413 157.612 -6.89412C157.536 -7.92708 157.499 -8.96404 157.499 -10.001C157.499 -11.038 157.536 -12.0749 157.612 -13.1079C157.738 -14.8608 157.972 -16.6027 158.312 -18.3137L158.305 -18.3147ZM142.38 -13.1089C142.456 -12.0759 142.493 -11.039 142.493 -10.002C142.493 -8.96504 142.456 -7.92808 142.38 -6.89512C142.254 -5.14219 142.02 -3.40026 141.68 -1.68933C141.665 -1.60334 141.647 -1.51734 141.629 -1.43134C141.268 0.333588 140.792 2.08051 140.206 3.78844C139.888 4.71741 139.537 5.63638 139.156 6.53834C138.661 7.70629 138.113 8.85625 137.513 9.9802C136.821 11.2772 136.061 12.5391 135.238 13.7561C133.716 16.008 131.969 18.1249 130.046 20.0498C128.122 21.9737 126.004 23.7216 123.753 25.2416C122.536 26.0636 121.275 26.8245 119.977 27.5155C118.853 28.1175 117.704 28.6655 116.536 29.1594C115.632 29.5414 114.715 29.8924 113.786 30.2094C112.079 30.7954 110.332 31.2713 108.567 31.6333C108.481 31.6503 108.395 31.6683 108.308 31.6853C106.597 32.0243 104.856 32.2583 103.103 32.3843C102.071 32.4593 101.034 32.4973 99.996 32.4973C98.9581 32.4973 97.9211 32.4593 96.8892 32.3843C96.6092 30.6424 96.2342 28.9324 95.7692 27.2605C97.1571 27.4175 98.5671 27.4965 99.996 27.4965C101.425 27.4965 102.835 27.4165 104.223 27.2605C106.123 27.0475 107.98 26.6935 109.784 26.2066C111.989 25.6126 114.114 24.8216 116.139 23.8536C123.88 20.1568 130.153 13.883 133.851 6.14136C134.819 4.11643 135.61 1.99052 136.204 -0.215393C136.691 -2.01832 137.045 -3.87524 137.258 -5.77517C137.415 -7.16211 137.494 -8.57306 137.494 -10.002C137.494 -11.4309 137.414 -12.8419 137.258 -14.2288C138.93 -13.7638 140.64 -13.3889 142.382 -13.1089H142.38ZM112.73 44.2228C112.943 46.1228 113.297 47.9797 113.784 49.7836C114.378 51.9895 115.169 54.1144 116.137 56.1394C119.834 63.88 126.108 70.1538 133.849 73.8516C135.874 74.8196 138 75.6106 140.206 76.2045C142.009 76.6915 143.866 77.0455 145.766 77.2585C147.153 77.4155 148.564 77.4945 149.993 77.4945C151.421 77.4945 152.832 77.4145 154.219 77.2585C153.754 78.9305 153.379 80.6404 153.099 82.3823C152.066 82.4583 151.029 82.4953 149.993 82.4953C148.956 82.4953 147.919 82.4583 146.886 82.3823C145.133 82.2563 143.391 82.0223 141.68 81.6823C141.594 81.6673 141.508 81.6493 141.422 81.6313C139.657 81.2704 137.91 80.7944 136.202 80.2084C135.273 79.8904 134.354 79.5394 133.452 79.1584C132.284 78.6635 131.134 78.1155 130.011 77.5155C128.714 76.8235 127.452 76.0636 126.235 75.2406C123.983 73.7186 121.866 71.9717 119.941 70.0478C118.017 68.1239 116.269 66.006 114.749 63.7551C113.927 62.5381 113.166 61.2771 112.475 59.9792C111.873 58.8542 111.325 57.7053 110.831 56.5373C110.449 55.6334 110.098 54.7164 109.782 53.7875C109.196 52.0795 108.72 50.3326 108.358 48.5677C108.341 48.4817 108.323 48.3957 108.306 48.3087C107.967 46.5977 107.733 44.8568 107.607 43.1039C107.532 42.0719 107.494 41.035 107.494 39.997C107.494 38.959 107.532 37.9221 107.607 36.8901C109.349 36.6101 111.058 36.2352 112.73 35.7702C112.573 37.1581 112.494 38.5681 112.494 39.997C112.494 41.4259 112.574 42.8359 112.73 44.2238V44.2228ZM102.562 42.5639C101.712 42.5189 100.856 42.4959 99.994 42.4959C99.132 42.4959 98.2771 42.5189 97.4261 42.5639C97.4711 41.7139 97.4941 40.858 97.4941 39.996C97.4941 39.134 97.4711 38.2791 97.4261 37.4281C98.2761 37.4731 99.132 37.4961 99.994 37.4961C100.856 37.4961 101.711 37.4731 102.562 37.4281C102.517 38.2781 102.494 39.134 102.494 39.996C102.494 40.858 102.517 41.7129 102.562 42.5639ZM87.4946 39.996C87.4946 38.5661 87.4146 37.1571 87.2586 35.7692C87.0456 33.8692 86.6917 32.0123 86.2047 30.2084C85.6107 28.0025 84.8198 25.8776 83.8518 23.8526C80.155 16.112 73.8813 9.8382 66.1397 6.14035C64.1148 5.17239 61.9889 4.38142 59.783 3.78745C57.9801 3.30047 56.1232 2.94648 54.2233 2.73349C52.8364 2.5765 51.4254 2.4975 49.9965 2.4975C48.5676 2.4975 47.1566 2.5775 45.7697 2.73349C46.2347 1.06156 46.6097 -0.648373 46.8897 -2.3903C47.9226 -2.4663 48.9596 -2.5033 49.9965 -2.5033C51.0334 -2.5033 52.0704 -2.4663 53.1033 -2.3903C54.8563 -2.26431 56.5982 -2.03032 58.3091 -1.69033C58.3951 -1.67533 58.4811 -1.65733 58.5671 -1.63933C60.332 -1.27835 62.0789 -0.802368 63.7868 -0.216393C64.7158 0.101593 65.6347 0.452579 66.5367 0.833565C67.7046 1.32854 68.8546 1.87652 69.9785 2.4765C71.2754 3.16847 72.5374 3.92844 73.7543 4.75141C76.0062 6.27335 78.1231 8.02028 80.048 9.9442C81.9719 11.8681 83.7198 13.986 85.2397 16.237C86.0617 17.4539 86.8227 18.7149 87.5136 20.0128C88.1156 21.1377 88.6636 22.2867 89.1575 23.4547C89.5395 24.3586 89.8905 25.2756 90.2075 26.2046C90.7935 27.9125 91.2694 29.6594 91.6314 31.4243C91.6484 31.5103 91.6664 31.5963 91.6834 31.6833C92.0224 33.3943 92.2564 35.1352 92.3824 36.8881C92.4574 37.9201 92.4954 38.957 92.4954 39.995C92.4954 41.033 92.4574 42.0699 92.3824 43.1019C90.6405 43.3819 88.9306 43.7569 87.2586 44.2218C87.4156 42.8339 87.4946 41.4239 87.4946 39.995V39.996ZM131.932 -16.0558C132.305 -14.0748 132.492 -12.0529 132.492 -10.002C132.492 -7.95108 132.305 -5.92916 131.932 -3.94824C131.519 -1.74933 130.877 0.398582 130.01 2.4785C129.987 2.5345 129.964 2.5905 129.939 2.64649C129.127 4.57142 128.119 6.42834 126.945 8.16528C125.781 9.88721 124.445 11.5061 122.973 12.9781C121.501 14.45 119.881 15.786 118.16 16.9489C116.423 18.1229 114.566 19.1308 112.641 19.9448C112.586 19.9688 112.531 19.9918 112.475 20.0148C110.394 20.8818 108.247 21.5237 106.048 21.9387C104.067 22.3107 102.045 22.4977 99.994 22.4977C97.9431 22.4977 95.9212 22.3107 93.9403 21.9387C93.0933 19.8788 92.1054 17.8909 90.9884 15.989C93.8093 16.9669 96.8402 17.4979 99.994 17.4979C103.148 17.4979 106.179 16.9669 109 15.989C116.942 13.2381 123.232 6.94833 125.983 -0.994358C126.962 -3.81625 127.493 -6.84613 127.493 -10.001C127.493 -13.1559 126.962 -16.1858 125.983 -19.0076C127.885 -17.8907 129.873 -16.9027 131.932 -16.0548V-16.0558ZM115.903 -25.9114C117.97 -23.8444 119.594 -21.4375 120.726 -18.7587C121.899 -15.9888 122.492 -13.0419 122.492 -10.003C122.492 -6.96412 121.898 -4.01724 120.726 -1.24735C119.593 1.43154 117.97 3.83845 115.903 5.90536C113.835 7.97328 111.428 9.59621 108.75 10.7292C105.98 11.9021 103.034 12.4951 99.994 12.4951C96.9542 12.4951 94.0083 11.9011 91.2384 10.7292C88.5596 9.59621 86.1527 7.97328 84.0848 5.90536C82.0179 3.83845 80.394 1.43154 79.262 -1.24735C78.0891 -4.01724 77.4961 -6.96412 77.4961 -10.003C77.4961 -13.0419 78.0901 -15.9888 79.262 -18.7587C80.395 -21.4375 82.0179 -23.8444 84.0848 -25.9114C86.1527 -27.9793 88.5596 -29.6022 91.2384 -30.7352C94.0083 -31.9081 96.9542 -32.5011 99.994 -32.5011C103.034 -32.5011 105.98 -31.9071 108.75 -30.7352C111.428 -29.6022 113.835 -27.9793 115.903 -25.9114ZM109 -35.993C106.179 -36.9709 103.148 -37.5019 99.994 -37.5019C96.8402 -37.5019 93.8093 -36.9709 90.9884 -35.993C83.0458 -33.2421 76.7562 -26.9523 74.0053 -19.0096C73.0264 -16.1878 72.4954 -13.1579 72.4954 -10.003C72.4954 -6.84813 73.0264 -3.81825 74.0053 -0.996361C72.1034 -2.11332 70.1155 -3.10127 68.0556 -3.94924C67.6826 -5.93016 67.4956 -7.95208 67.4956 -10.003C67.4956 -12.0539 67.6826 -14.0758 68.0556 -16.0568C68.4686 -18.2557 69.1105 -20.4026 69.9785 -22.4835C70.0015 -22.5395 70.0245 -22.5955 70.0485 -22.6515C70.8615 -24.5764 71.8694 -26.4333 73.0433 -28.1703C74.2063 -29.8922 75.5432 -31.5111 77.0152 -32.9831C78.4871 -34.455 80.107 -35.791 81.8279 -36.9539C83.5648 -38.1279 85.4217 -39.1358 87.3466 -39.9498C87.4016 -39.9738 87.4566 -39.9968 87.5126 -40.0198C89.5935 -40.8868 91.7414 -41.5287 93.9403 -41.9437C95.9212 -42.3157 97.9431 -42.5027 99.994 -42.5027C102.045 -42.5027 104.067 -42.3157 106.048 -41.9437C106.895 -39.8838 107.883 -37.8959 109 -35.994V-35.993ZM57.6091 -13.1099C57.7351 -14.8628 57.9691 -16.6047 58.3091 -18.3157C58.3241 -18.4017 58.3421 -18.4877 58.3601 -18.5737C58.7211 -20.3386 59.197 -22.0855 59.783 -23.7934C60.101 -24.7224 60.452 -25.6414 60.833 -26.5433C61.3279 -27.7113 61.8759 -28.8612 62.4759 -29.9852C63.1678 -31.2821 63.9278 -32.5441 64.7508 -33.761C66.2727 -36.013 68.0196 -38.1299 69.9435 -40.0548C71.8674 -41.9787 73.9853 -43.7267 76.2362 -45.2466C77.4531 -46.0686 78.7141 -46.8295 80.012 -47.5205C81.1359 -48.1225 82.2849 -48.6705 83.4528 -49.1644C84.3568 -49.5464 85.2737 -49.8974 86.2027 -50.2144C87.9096 -50.8004 89.6565 -51.2763 91.4224 -51.6383C91.5084 -51.6553 91.5944 -51.6733 91.6814 -51.6903C93.3923 -52.0293 95.1332 -52.2633 96.8862 -52.3893C97.9181 -52.4643 98.9551 -52.5023 99.993 -52.5023C101.031 -52.5023 102.068 -52.4643 103.1 -52.3893C103.38 -50.6474 103.755 -48.9374 104.22 -47.2655C102.832 -47.4225 101.422 -47.5015 99.993 -47.5015C98.5641 -47.5015 97.1541 -47.4215 95.7662 -47.2655C93.8663 -47.0525 92.0094 -46.6985 90.2055 -46.2116C87.9996 -45.6176 85.8747 -44.8266 83.8498 -43.8586C76.1092 -40.1618 69.8355 -33.888 66.1377 -26.1464C65.1697 -24.1214 64.3788 -21.9955 63.7848 -19.7896C63.2978 -17.9867 62.9439 -16.1298 62.7309 -14.2298C62.5739 -12.8429 62.4949 -11.4319 62.4949 -10.003C62.4949 -8.57406 62.5749 -7.16311 62.7309 -5.77617C61.059 -6.24115 59.349 -6.61613 57.6071 -6.89613C57.5311 -7.92908 57.4941 -8.96604 57.4941 -10.003C57.4941 -11.04 57.5311 -12.0769 57.6071 -13.1099H57.6091ZM47.4296 -12.5709C48.2796 -12.5259 49.1355 -12.5029 49.9975 -12.5029C50.8595 -12.5029 51.7144 -12.5259 52.5654 -12.5709C52.5204 -11.7209 52.4974 -10.865 52.4974 -10.003C52.4974 -9.14104 52.5204 -8.28607 52.5654 -7.4351C51.7154 -7.4801 50.8595 -7.5031 49.9975 -7.5031C49.1355 -7.5031 48.2806 -7.4801 47.4296 -7.4351C47.4746 -8.28507 47.4976 -9.14104 47.4976 -10.003C47.4976 -10.865 47.4746 -11.7199 47.4296 -12.5709ZM43.9438 8.05628C45.9247 7.6833 47.9466 7.4963 49.9975 7.4963C52.0484 7.4963 54.0703 7.6833 56.0512 8.05628C58.2501 8.46926 60.397 9.11124 62.4779 9.9792C62.5339 10.0022 62.5899 10.0252 62.6459 10.0492C64.5708 10.8622 66.4277 11.8701 68.1646 13.0441C69.8865 14.208 71.5054 15.544 72.9774 17.0159C74.4493 18.4879 75.7852 20.1078 76.9482 21.8287C78.1221 23.5657 79.13 25.4226 79.944 27.3475C79.968 27.4025 79.991 27.4575 80.014 27.5135C80.881 29.5944 81.5229 31.7423 81.9379 33.9412C82.3099 35.9222 82.4969 37.9441 82.4969 39.995C82.4969 42.0459 82.3099 44.0678 81.9379 46.0488C79.878 46.8957 77.8901 47.8837 75.9882 49.0006C76.9661 46.1798 77.4971 43.1489 77.4971 39.995C77.4971 36.8411 76.9661 33.8102 75.9882 30.9894C73.2373 23.0467 66.9477 16.7569 59.0051 14.006C56.1832 13.0271 53.1533 12.4961 49.9985 12.4961C46.8437 12.4961 43.8138 13.0271 40.992 14.006C42.1089 12.1041 43.0968 10.1162 43.9448 8.05628H43.9438ZM29.2645 31.2393C30.3975 28.5605 32.0204 26.1536 34.0883 24.0856C36.1552 22.0187 38.5621 20.3948 41.2409 19.2628C44.0108 18.0899 46.9577 17.4969 49.9965 17.4969C53.0353 17.4969 55.9822 18.0909 58.7521 19.2628C61.4309 20.3958 63.8378 22.0187 65.9047 24.0856C67.9726 26.1536 69.5955 28.5605 70.7285 31.2393C71.9014 34.0092 72.4944 36.9551 72.4944 39.995C72.4944 43.0349 71.9004 45.9808 70.7285 48.7507C69.5955 51.4296 67.9726 53.8364 65.9047 55.9044C63.8378 57.9713 61.4309 59.5952 58.7521 60.7272C55.9822 61.9001 53.0353 62.4931 49.9965 62.4931C46.9577 62.4931 44.0108 61.8991 41.2409 60.7272C38.5621 59.5942 36.1552 57.9713 34.0883 55.9044C32.0204 53.8364 30.3975 51.4296 29.2645 48.7507C28.0916 45.9808 27.4986 43.0349 27.4986 39.995C27.4986 36.9551 28.0926 34.0092 29.2645 31.2393ZM18.0581 33.9422C20.118 33.0953 22.1059 32.1073 24.0078 30.9904C23.0298 33.8112 22.4989 36.8421 22.4989 39.996C22.4989 43.1499 23.0298 46.1808 24.0078 49.0016C26.7587 56.9443 33.0483 63.2341 40.991 65.985C43.8128 66.9639 46.8427 67.4949 49.9975 67.4949C53.1523 67.4949 56.1822 66.9639 59.0041 65.985C57.8871 67.8869 56.8992 69.8748 56.0512 71.9347C54.0703 72.3077 52.0484 72.4947 49.9975 72.4947C47.9466 72.4947 45.9247 72.3077 43.9438 71.9347C41.7449 71.5217 39.598 70.8798 37.5171 70.0118C37.4611 69.9888 37.4051 69.9658 37.3491 69.9418C35.4242 69.1288 33.5673 68.1209 31.8304 66.9469C30.1085 65.783 28.4896 64.447 27.0177 62.9751C25.5457 61.5031 24.2098 59.8832 23.0468 58.1623C21.8729 56.4253 20.865 54.5684 20.051 52.6435C20.027 52.5885 20.004 52.5335 19.981 52.4775C19.114 50.3966 18.4721 48.2487 18.0571 46.0498C17.6851 44.0688 17.4981 42.0469 17.4981 39.996C17.4981 37.9451 17.6851 35.9232 18.0571 33.9422H18.0581ZM41.6849 81.6813C41.5989 81.6663 41.5129 81.6483 41.4269 81.6303C39.662 81.2693 37.9151 80.7934 36.2072 80.2074C35.2782 79.8894 34.3593 79.5384 33.4573 79.1574C32.2894 78.6625 31.1394 78.1145 30.0155 77.5145C28.7186 76.8225 27.4566 76.0625 26.2397 75.2396C23.9878 73.7177 21.8709 71.9707 19.946 70.0468C18.0221 68.1229 16.2742 66.005 14.7543 63.754C13.9323 62.5371 13.1713 61.2761 12.4804 59.9782C11.8784 58.8532 11.3304 57.7043 10.8365 56.5363C10.4545 55.6324 10.1035 54.7154 9.78651 53.7865C9.20054 52.0785 8.72456 50.3316 8.36258 48.5667C8.34558 48.4807 8.32758 48.3947 8.31059 48.3077C7.9716 46.5967 7.73761 44.8558 7.61162 43.1029C7.53662 42.0709 7.49862 41.034 7.49862 39.996C7.49862 38.958 7.53662 37.9211 7.61162 36.8891C9.35353 36.6091 11.0634 36.2341 12.7354 35.7692C12.5784 37.1571 12.4994 38.5671 12.4994 39.996C12.4994 41.4249 12.5794 42.8349 12.7354 44.2228C12.9484 46.1228 13.3023 47.9797 13.7893 49.7836C14.3833 51.9895 15.1742 54.1144 16.1422 56.1394C19.839 63.88 26.1127 70.1538 33.8543 73.8516C35.8792 74.8196 38.0051 75.6106 40.211 76.2045C42.0139 76.6915 43.8708 77.0455 45.7707 77.2585C47.1576 77.4155 48.5686 77.4945 49.9975 77.4945C51.4264 77.4945 52.8374 77.4145 54.2243 77.2585C53.7593 78.9305 53.3843 80.6404 53.1043 82.3823C52.0714 82.4583 51.0345 82.4953 49.9975 82.4953C48.9606 82.4953 47.9236 82.4583 46.8907 82.3823C45.1377 82.2563 43.3958 82.0223 41.6849 81.6823V81.6813ZM49.9975 92.4939C49.1365 92.4939 48.2806 92.5169 47.4296 92.5619C47.4746 91.7119 47.4976 90.856 47.4976 89.994C47.4976 89.132 47.4746 88.2771 47.4296 87.4261C48.2796 87.4711 49.1355 87.4941 49.9975 87.4941C50.8595 87.4941 51.7144 87.4711 52.5654 87.4261C52.5204 88.2761 52.4974 89.132 52.4974 89.994C52.4974 90.856 52.5204 91.7109 52.5654 92.5619C51.7154 92.5169 50.8595 92.4939 49.9975 92.4939ZM57.6101 93.1009C57.5341 92.0679 57.4971 91.031 57.4971 89.994C57.4971 88.957 57.5341 87.9201 57.6101 86.8871C57.7361 85.1342 57.9701 83.3923 58.3101 81.6813C58.3251 81.5953 58.3431 81.5093 58.3611 81.4234C58.7221 79.6584 59.198 77.9115 59.784 76.2036C60.102 75.2746 60.453 74.3556 60.834 73.4537C61.3289 72.2857 61.8769 71.1358 62.4769 70.0118C63.1688 68.7149 63.9288 67.4529 64.7518 66.236C66.2737 63.984 68.0206 61.8671 69.9445 59.9422C71.8684 58.0183 73.9863 56.2704 76.2372 54.7504C77.4541 53.9285 78.7151 53.1675 80.013 52.4765C81.1369 51.8745 82.2859 51.3265 83.4538 50.8326C84.3578 50.4506 85.2747 50.0996 86.2037 49.7826C87.9106 49.1966 89.6575 48.7206 91.4234 48.3587C91.5094 48.3417 91.5954 48.3237 91.6824 48.3067C93.3933 47.9677 95.1342 47.7337 96.8872 47.6077C97.9191 47.5327 98.9561 47.4947 99.994 47.4947C101.032 47.4947 102.069 47.5327 103.101 47.6077C103.381 49.3496 103.756 51.0596 104.221 52.7315C102.833 52.5745 101.423 52.4955 99.994 52.4955C98.5651 52.4955 97.1551 52.5755 95.7672 52.7315C93.8673 52.9445 92.0104 53.2985 90.2065 53.7855C88.0006 54.3794 85.8757 55.1704 83.8508 56.1384C76.1102 59.8352 69.8365 66.109 66.1387 73.8506C65.1707 75.8756 64.3798 78.0015 63.7858 80.2074C63.2988 82.0103 62.9449 83.8672 62.7319 85.7672C62.5749 87.1541 62.4959 88.5651 62.4959 89.994C62.4959 91.4229 62.5759 92.8339 62.7319 94.2208C61.0599 93.7559 59.35 93.3809 57.6081 93.1009H57.6101ZM68.0566 96.0478C67.6836 94.0668 67.4966 92.0449 67.4966 89.994C67.4966 87.9431 67.6836 85.9212 68.0566 83.9402C68.4696 81.7413 69.1115 79.5944 69.9795 77.5135C70.0025 77.4575 70.0255 77.4015 70.0495 77.3455C70.8625 75.4206 71.8704 73.5637 73.0443 71.8267C74.2073 70.1048 75.5442 68.4859 77.0162 67.0139C78.4881 65.542 80.108 64.206 81.8289 63.0431C83.5658 61.8691 85.4227 60.8612 87.3476 60.0472C87.4026 60.0232 87.4576 60.0002 87.5136 59.9772C89.5945 59.1102 91.7424 58.4683 93.9413 58.0533C95.9222 57.6813 97.9441 57.4943 99.995 57.4943C102.046 57.4943 104.068 57.6813 106.049 58.0533C106.896 60.1132 107.884 62.1011 109.001 64.003C106.18 63.0251 103.149 62.4941 99.995 62.4941C96.8412 62.4941 93.8103 63.0251 90.9895 64.003C83.0469 66.7539 76.7572 73.0437 74.0063 80.9864C73.0274 83.8083 72.4964 86.8381 72.4964 89.993C72.4964 93.1479 73.0274 96.1778 74.0063 98.9996C72.1044 97.8827 70.1165 96.8947 68.0566 96.0468V96.0478ZM84.0858 105.903C82.0189 103.836 80.395 101.43 79.263 98.7506C78.0901 95.9808 77.4971 93.0339 77.4971 89.995C77.4971 86.9561 78.0911 84.0092 79.263 81.2393C80.396 78.5605 82.0189 76.1536 84.0858 74.0866C86.1537 72.0187 88.5606 70.3958 91.2394 69.2628C94.0093 68.0899 96.9552 67.4969 99.995 67.4969C103.035 67.4969 105.981 68.0909 108.751 69.2628C111.429 70.3958 113.836 72.0187 115.904 74.0866C117.971 76.1536 119.595 78.5605 120.727 81.2393C121.9 84.0092 122.493 86.9561 122.493 89.995C122.493 93.0339 121.899 95.9808 120.727 98.7506C119.594 101.43 117.971 103.836 115.904 105.903C113.836 107.971 111.429 109.594 108.751 110.727C105.981 111.9 103.035 112.493 99.995 112.493C96.9552 112.493 94.0093 111.899 91.2394 110.727C88.5606 109.594 86.1537 107.971 84.0858 105.903ZM90.9895 115.985C93.8103 116.963 96.8412 117.494 99.995 117.494C103.149 117.494 106.18 116.963 109.001 115.985C116.943 113.234 123.233 106.944 125.984 99.0016C126.963 96.1797 127.494 93.1499 127.494 89.995C127.494 86.8401 126.963 83.8102 125.984 80.9884C127.886 82.1053 129.874 83.0933 131.933 83.9412C132.306 85.9222 132.493 87.9441 132.493 89.995C132.493 92.0459 132.306 94.0678 131.933 96.0488C131.52 98.2477 130.878 100.396 130.011 102.475C129.988 102.531 129.965 102.587 129.941 102.643C129.128 104.568 128.12 106.425 126.946 108.162C125.782 109.884 124.446 111.503 122.974 112.975C121.502 114.447 119.882 115.783 118.161 116.946C116.424 118.12 114.567 119.128 112.642 119.942C112.587 119.966 112.532 119.989 112.476 120.012C110.395 120.879 108.248 121.521 106.049 121.936C104.068 122.308 102.046 122.495 99.995 122.495C97.9441 122.495 95.9222 122.308 93.9413 121.936C93.0944 119.876 92.1064 117.888 90.9895 115.986V115.985ZM142.38 93.1019C142.254 94.8548 142.02 96.5967 141.68 98.3077C141.665 98.3937 141.647 98.4797 141.629 98.5657C141.268 100.331 140.792 102.078 140.206 103.785C139.888 104.714 139.537 105.633 139.156 106.535C138.661 107.703 138.113 108.853 137.513 109.977C136.821 111.274 136.061 112.536 135.238 113.753C133.716 116.005 131.969 118.122 130.046 120.047C128.122 121.971 126.004 123.719 123.753 125.239C122.536 126.061 121.275 126.822 119.977 127.512C118.853 128.114 117.704 128.662 116.536 129.156C115.632 129.538 114.715 129.889 113.786 130.206C112.079 130.792 110.332 131.268 108.567 131.63C108.481 131.647 108.395 131.665 108.308 131.682C106.597 132.021 104.856 132.255 103.103 132.381C102.071 132.456 101.034 132.494 99.996 132.494C98.9581 132.494 97.9211 132.456 96.8892 132.381C96.6092 130.639 96.2342 128.929 95.7692 127.258C97.1571 127.415 98.5671 127.493 99.996 127.493C101.425 127.493 102.835 127.414 104.223 127.258C106.123 127.045 107.98 126.691 109.784 126.204C111.989 125.61 114.114 124.819 116.139 123.851C123.88 120.154 130.153 113.88 133.851 106.138C134.819 104.113 135.61 101.988 136.204 99.7816C136.691 97.9787 137.045 96.1218 137.258 94.2218C137.415 92.8349 137.494 91.424 137.494 89.995C137.494 88.5661 137.414 87.1551 137.258 85.7682C138.93 86.2332 140.64 86.6081 142.382 86.8881C142.458 87.9211 142.495 88.958 142.495 89.995C142.495 91.032 142.458 92.0689 142.382 93.1019H142.38ZM152.559 92.5629C151.709 92.5179 150.853 92.4949 149.992 92.4949C149.13 92.4949 148.275 92.5179 147.424 92.5629C147.469 91.7129 147.492 90.857 147.492 89.995C147.492 89.133 147.469 88.2781 147.424 87.4271C148.274 87.4721 149.13 87.4951 149.992 87.4951C150.853 87.4951 151.708 87.4721 152.559 87.4271C152.514 88.2771 152.491 89.133 152.491 89.995C152.491 90.857 152.514 91.7119 152.559 92.5629ZM156.045 71.9357C154.064 72.3087 152.042 72.4957 149.992 72.4957C147.941 72.4957 145.919 72.3087 143.938 71.9357C141.739 71.5227 139.592 70.8808 137.511 70.0128C137.455 69.9898 137.399 69.9668 137.343 69.9428C135.418 69.1298 133.561 68.1219 131.824 66.9479C130.103 65.784 128.484 64.448 127.012 62.9761C125.54 61.5041 124.204 59.8842 123.041 58.1633C121.867 56.4263 120.859 54.5694 120.045 52.6445C120.021 52.5895 119.998 52.5345 119.975 52.4785C119.108 50.3976 118.466 48.2497 118.051 46.0508C117.679 44.0698 117.492 42.0479 117.492 39.997C117.492 37.9461 117.679 35.9242 118.051 33.9432C120.111 33.0963 122.099 32.1083 124.001 30.9914C123.023 33.8122 122.492 36.8431 122.492 39.997C122.492 43.1509 123.023 46.1817 124.001 49.0026C126.752 56.9453 133.041 63.2351 140.984 65.986C143.806 66.9649 146.836 67.4959 149.99 67.4959C153.145 67.4959 156.175 66.9649 158.997 65.986C157.88 67.8879 156.892 69.8758 156.044 71.9357H156.045ZM170.724 48.7526C169.592 51.4315 167.969 53.8384 165.901 55.9064C163.834 57.9733 161.427 59.5972 158.748 60.7292C155.978 61.9021 153.031 62.4951 149.993 62.4951C146.954 62.4951 144.007 61.9011 141.237 60.7292C138.558 59.5962 136.151 57.9733 134.084 55.9064C132.016 53.8384 130.393 51.4315 129.261 48.7526C128.088 45.9828 127.495 43.0369 127.495 39.997C127.495 36.9571 128.089 34.0112 129.261 31.2413C130.393 28.5625 132.016 26.1555 134.084 24.0876C136.151 22.0207 138.558 20.3968 141.237 19.2648C144.007 18.0919 146.954 17.4989 149.993 17.4989C153.031 17.4989 155.978 18.0929 158.748 19.2648C161.427 20.3978 163.834 22.0207 165.901 24.0876C167.969 26.1555 169.592 28.5625 170.724 31.2413C171.897 34.0112 172.49 36.9571 172.49 39.997C172.49 43.0369 171.896 45.9828 170.724 48.7526ZM181.931 46.0498C179.871 46.8967 177.883 47.8847 175.981 49.0016C176.959 46.1808 177.49 43.1499 177.49 39.996C177.49 36.8421 176.959 33.8112 175.981 30.9904C173.23 23.0477 166.941 16.7579 158.998 14.007C156.176 13.0281 153.146 12.4971 149.992 12.4971C146.837 12.4971 143.807 13.0281 140.985 14.007C142.102 12.1051 143.09 10.1172 143.938 8.05727C145.919 7.68429 147.941 7.4973 149.992 7.4973C152.042 7.4973 154.064 7.68429 156.045 8.05727C158.244 8.47026 160.391 9.11224 162.472 9.9802C162.528 10.0032 162.584 10.0262 162.64 10.0502C164.565 10.8632 166.422 11.8711 168.159 13.0451C169.881 14.209 171.499 15.545 172.971 17.0169C174.443 18.4889 175.779 20.1088 176.942 21.8297C178.116 23.5667 179.124 25.4236 179.938 27.3485C179.962 27.4035 179.985 27.4585 180.008 27.5145C180.875 29.5954 181.517 31.7433 181.932 33.9422C182.304 35.9232 182.491 37.9451 182.491 39.996C182.491 42.0469 182.304 44.0688 181.932 46.0498H181.931ZM158.304 -1.68933C158.39 -1.67433 158.476 -1.65633 158.562 -1.63833C160.327 -1.27735 162.074 -0.801369 163.782 -0.215393C164.711 0.102596 165.63 0.453583 166.532 0.834568C167.7 1.32955 168.85 1.87753 169.973 2.4775C171.27 3.16947 172.532 3.92944 173.749 4.75241C176.001 6.27435 178.118 8.02128 180.043 9.9452C181.967 11.8691 183.715 13.987 185.235 16.2379C186.057 17.4549 186.818 18.7159 187.509 20.0138C188.111 21.1388 188.659 22.2877 189.153 23.4557C189.535 24.3596 189.886 25.2766 190.202 26.2056C190.788 27.9135 191.264 29.6604 191.626 31.4253C191.643 31.5113 191.661 31.5973 191.678 31.6843C192.017 33.3953 192.251 35.1362 192.377 36.8891C192.452 37.9211 192.49 38.958 192.49 39.996C192.49 41.034 192.452 42.0709 192.377 43.1029C190.635 43.3829 188.926 43.7579 187.254 44.2228C187.411 42.8349 187.49 41.4249 187.49 39.996C187.49 38.5671 187.41 37.1571 187.254 35.7692C187.041 33.8692 186.687 32.0123 186.2 30.2084C185.606 28.0025 184.815 25.8776 183.847 23.8526C180.15 16.112 173.876 9.8382 166.135 6.14035C164.11 5.17239 161.984 4.38142 159.778 3.78745C157.975 3.30047 156.118 2.94648 154.218 2.73349C152.831 2.5765 151.42 2.4975 149.992 2.4975C148.563 2.4975 147.152 2.5775 145.765 2.73349C146.23 1.06156 146.605 -0.648373 146.885 -2.3903C147.918 -2.4663 148.955 -2.5033 149.992 -2.5033C151.028 -2.5033 152.065 -2.4663 153.098 -2.3903C154.851 -2.26431 156.593 -2.03032 158.304 -1.69033V-1.68933ZM152.559 -7.4341C151.709 -7.4791 150.853 -7.5021 149.992 -7.5021C149.13 -7.5021 148.275 -7.4791 147.424 -7.4341C147.469 -8.28407 147.492 -9.14003 147.492 -10.002C147.492 -10.864 147.469 -11.7189 147.424 -12.5699C148.274 -12.5249 149.13 -12.5019 149.992 -12.5019C150.853 -12.5019 151.708 -12.5249 152.559 -12.5699C152.514 -11.7199 152.491 -10.864 152.491 -10.002C152.491 -9.14003 152.514 -8.28507 152.559 -7.4341Z" fill="#FCEBCF"/>
<path d="M182.491 -10.002C182.491 -0.337381 190.326 7.49731 199.99 7.49731V2.49751C196.651 2.49751 193.512 1.19756 191.152 -1.16435C188.791 -3.52525 187.49 -6.66413 187.49 -10.003C187.49 -13.3419 188.79 -16.4807 191.152 -18.8416C193.512 -21.2025 196.651 -22.5035 199.99 -22.5035V-27.5033C190.326 -27.5033 182.491 -19.6686 182.491 -10.004V-10.002Z" fill="#FCEBCF"/>
<path d="M149.992 32.4963C145.851 32.4963 142.493 35.8541 142.493 39.996C142.493 44.1378 145.851 47.4957 149.992 47.4957C154.134 47.4957 157.492 44.1378 157.492 39.996C157.492 35.8541 154.134 32.4963 149.992 32.4963ZM149.992 42.4949C148.615 42.4949 147.493 41.3739 147.493 39.995C147.493 38.616 148.615 37.4951 149.992 37.4951C151.37 37.4951 152.492 38.616 152.492 39.995C152.492 41.3739 151.37 42.4949 149.992 42.4949Z" fill="#FCEBCF"/>
<path d="M149.993 22.4967C140.328 22.4967 132.493 30.3314 132.493 39.996C132.493 49.6606 140.328 57.4953 149.993 57.4953C159.657 57.4953 167.492 49.6606 167.492 39.996C167.492 30.3314 159.657 22.4967 149.993 22.4967ZM158.831 48.8346C156.47 51.1956 153.331 52.4965 149.993 52.4965C146.654 52.4965 143.515 51.1966 141.154 48.8346C138.793 46.4737 137.492 43.3349 137.492 39.996C137.492 36.6571 138.792 33.5183 141.154 31.1574C143.515 28.7964 146.654 27.4955 149.993 27.4955C153.331 27.4955 156.47 28.7954 158.831 31.1574C161.192 33.5183 162.493 36.6571 162.493 39.996C162.493 43.3349 161.193 46.4737 158.831 48.8346Z" fill="#FCEBCF"/>
<path d="M17.4991 -10.002C17.4991 -19.6666 9.66452 -27.5013 0 -27.5013V-22.5015C3.33883 -22.5015 6.47768 -21.2015 8.83856 -18.8396C11.1994 -16.4787 12.5004 -13.3398 12.5004 -10.001C12.5004 -6.66212 11.2004 -3.52324 8.83856 -1.16233C6.47768 1.19857 3.33883 2.49952 0 2.49952V7.49932C9.66452 7.49932 17.4991 -0.335369 17.4991 -9.99998V-10.002Z" fill="#FCEBCF"/>
<path d="M49.9975 47.4957C54.1393 47.4957 57.4972 44.1378 57.4972 39.996C57.4972 35.8541 54.1393 32.4963 49.9975 32.4963C45.8558 32.4963 42.4979 35.8541 42.4979 39.996C42.4979 44.1378 45.8558 47.4957 49.9975 47.4957ZM49.9975 37.4971C51.3755 37.4971 52.4974 38.618 52.4974 39.997C52.4974 41.3759 51.3755 42.4969 49.9975 42.4969C48.6196 42.4969 47.4977 41.3759 47.4977 39.997C47.4977 38.618 48.6196 37.4971 49.9975 37.4971Z" fill="#FCEBCF"/>
<path d="M49.9977 57.4953C59.6622 57.4953 67.4968 49.6606 67.4968 39.996C67.4968 30.3314 59.6622 22.4967 49.9977 22.4967C40.3331 22.4967 32.4985 30.3314 32.4985 39.996C32.4985 49.6606 40.3331 57.4953 49.9977 57.4953ZM41.1591 31.1574C43.52 28.7964 46.6588 27.4955 49.9977 27.4955C53.3365 27.4955 56.4753 28.7954 58.8362 31.1574C61.1971 33.5183 62.498 36.6571 62.498 39.996C62.498 43.3349 61.1981 46.4737 58.8362 48.8346C56.4753 51.1956 53.3365 52.4965 49.9977 52.4965C46.6588 52.4965 43.52 51.1966 41.1591 48.8346C38.7982 46.4737 37.4973 43.3349 37.4973 39.996C37.4973 36.6571 38.7972 33.5183 41.1591 31.1574Z" fill="#FCEBCF"/>
<path d="M182.491 89.994C182.491 99.6586 190.326 107.493 199.99 107.493V102.494C196.651 102.494 193.512 101.194 191.152 98.8317C188.791 96.4707 187.49 93.3319 187.49 89.993C187.49 86.6541 188.79 83.5153 191.152 81.1544C193.512 78.7935 196.651 77.4925 199.99 77.4925V72.4927C190.326 72.4927 182.491 80.3274 182.491 89.992V89.994Z" fill="#FCEBCF"/>
<path d="M117.494 89.9941C117.494 80.3294 109.66 72.4948 99.9951 72.4948C90.3306 72.4948 82.496 80.3294 82.496 89.9941C82.496 99.6587 90.3306 107.493 99.9951 107.493C109.66 107.493 117.494 99.6587 117.494 89.9941ZM91.1565 98.8327C88.7957 96.4718 87.4947 93.3329 87.4947 89.9941C87.4947 86.6552 88.7947 83.5163 91.1565 81.1554C93.5174 78.7945 96.6563 77.4936 99.9951 77.4936C103.334 77.4936 106.473 78.7935 108.834 81.1554C111.195 83.5163 112.495 86.6552 112.495 89.9941C112.495 93.3329 111.196 96.4718 108.834 98.8327C106.473 101.194 103.334 102.495 99.9951 102.495C96.6563 102.495 93.5174 101.195 91.1565 98.8327Z" fill="#FCEBCF"/>
<path d="M17.4991 89.9941C17.4991 80.3294 9.66452 72.4948 0 72.4948V77.4946C3.33883 77.4946 6.47768 78.7945 8.83856 81.1564C11.1994 83.5173 12.5004 86.6562 12.5004 89.9951C12.5004 93.3339 11.2004 96.4728 8.83856 98.8337C6.47768 101.195 3.33883 102.496 0 102.496V107.495C9.66452 107.495 17.4991 99.6607 17.4991 89.9961V89.9941Z" fill="#FCEBCF"/>
</g>
</svg>
