<svg width="22" height="22" viewBox="0 0 22 22" fill="none" xmlns="http://www.w3.org/2000/svg">
<path d="M10.75 0.75V2.75M10.75 18.75V20.75M0.75 10.75H2.75M18.75 10.75H20.75M4.75 16.75L5.093 16.407M16.407 5.093L16.75 4.75M16.75 16.75L16.407 16.407M5.093 5.093L4.75 4.75M14.015 13.377C14.142 14.685 14.205 15.339 13.822 15.63C13.439 15.92 12.864 15.656 11.712 15.126L11.414 14.988C11.087 14.838 10.924 14.762 10.75 14.762C10.577 14.762 10.413 14.838 10.086 14.988L9.788 15.126C8.636 15.656 8.061 15.921 7.678 15.63C7.295 15.34 7.358 14.685 7.485 13.377L7.517 13.039C7.554 12.667 7.572 12.481 7.517 12.309C7.464 12.137 7.345 11.997 7.107 11.719L6.89 11.465C6.052 10.485 5.632 9.995 5.779 9.524C5.885 9.184 6.237 9.016 6.89 8.844M9.327 7.454C9.96 6.318 10.277 5.75 10.75 5.75C11.223 5.75 11.54 6.318 12.173 7.454L12.337 7.748C12.517 8.071 12.607 8.232 12.747 8.338C12.887 8.445 13.063 8.485 13.412 8.564L13.73 8.636C14.96 8.914 15.575 9.053 15.721 9.524C15.827 9.864 15.638 10.214 15.209 10.75" stroke="white" stroke-width="1.5" stroke-linecap="round"/>
</svg>
