<svg width="26" height="26" viewBox="0 0 26 26" fill="none" xmlns="http://www.w3.org/2000/svg">
<path d="M24.75 12.75C24.75 9.5674 23.4857 6.51516 21.2353 4.26472C18.9848 2.01428 15.9326 0.75 12.75 0.75M24.75 12.75H0.75M24.75 12.75C24.75 15.9326 23.4857 18.9848 21.2353 21.2353C18.9848 23.4857 15.9326 24.75 12.75 24.75M12.75 0.75C9.5674 0.75 6.51516 2.01428 4.26472 4.26472C2.01428 6.51516 0.75 9.5674 0.75 12.75M12.75 0.75C12.1014 0.75 7.56081 6.12211 7.56081 12.75C7.56081 19.3779 12.1014 24.75 12.75 24.75M12.75 0.75C13.3986 0.75 17.9392 6.12211 17.9392 12.75C17.9392 19.3779 13.3986 24.75 12.75 24.75M0.75 12.75C0.75 15.9326 2.01428 18.9848 4.26472 21.2353C6.51516 23.4857 9.5674 24.75 12.75 24.75" stroke="#303030" stroke-width="1.5" stroke-linecap="round" stroke-linejoin="round"/>
</svg>
