<svg width="12" height="12" viewBox="0 0 12 12" fill="none" xmlns="http://www.w3.org/2000/svg">
<path d="M6 0C6.78793 -1.17411e-08 7.56815 0.155195 8.2961 0.456723C9.02406 0.758251 9.68549 1.20021 10.2426 1.75736C10.7998 2.31451 11.2418 2.97595 11.5433 3.7039C11.8448 4.43185 12 5.21207 12 6C12 6.78793 11.8448 7.56815 11.5433 8.2961C11.2418 9.02406 10.7998 9.68549 10.2426 10.2426C9.68549 10.7998 9.02406 11.2418 8.2961 11.5433C7.56815 11.8448 6.78793 12 6 12C4.4087 12 2.88258 11.3679 1.75736 10.2426C0.632141 9.11742 0 7.5913 0 6C0 4.4087 0.632141 2.88258 1.75736 1.75736C2.88258 0.632141 4.4087 2.37122e-08 6 0ZM6 2.28571C5.01491 2.28571 4.07017 2.67704 3.3736 3.3736C2.67704 4.07017 2.28571 5.01491 2.28571 6C2.28571 6.98509 2.67704 7.92983 3.3736 8.6264C4.07017 9.32296 5.01491 9.71429 6 9.71429C6.98509 9.71429 7.92983 9.32296 8.6264 8.6264C9.32296 7.92983 9.71429 6.98509 9.71429 6C9.71429 5.01491 9.32296 4.07017 8.6264 3.3736C7.92983 2.67704 6.98509 2.28571 6 2.28571Z" fill="#06BD80"/>
</svg>
