<svg width="26" height="26" viewBox="0 0 26 26" fill="none" xmlns="http://www.w3.org/2000/svg">
<path d="M22.3692 0.75C21.0336 0.75 19.95 3.9732 19.95 7.95H22.3692C23.5356 7.95 24.1176 7.95 24.4788 7.548C24.8388 7.1448 24.7764 6.6144 24.6516 5.5548C24.318 2.754 23.4228 0.75 22.3692 0.75Z" stroke="#23B9F2" stroke-width="1.5"/>
<path d="M19.95 8.0148V20.7252C19.95 22.5384 19.95 23.4456 19.3956 23.8032C18.4896 24.3864 17.0892 23.1624 16.3848 22.7184C15.8028 22.3512 15.5124 22.1688 15.1896 22.158C14.8404 22.146 14.544 22.3224 13.9152 22.7184L11.622 24.1644C11.0028 24.5544 10.6944 24.75 10.35 24.75C10.0056 24.75 9.696 24.5544 9.078 24.1644L6.786 22.7184C6.2028 22.3512 5.9124 22.1688 5.5896 22.158C5.2404 22.146 4.944 22.3224 4.3152 22.7184C3.6108 23.1624 2.2104 24.3864 1.3032 23.8032C0.75 23.4456 0.75 22.5396 0.75 20.7252V8.0148C0.75 4.59 0.75 2.8788 1.8048 1.8144C2.8584 0.75 4.5564 0.75 7.95 0.75H22.35" stroke="#23B9F2" stroke-width="1.5" stroke-linecap="round" stroke-linejoin="round"/>
<path d="M10.35 7.95C9.02395 7.95 7.94995 8.7564 7.94995 9.75C7.94995 10.7436 9.02395 11.55 10.35 11.55C11.676 11.55 12.75 12.3564 12.75 13.35C12.75 14.3436 11.676 15.15 10.35 15.15M10.35 7.95C11.394 7.95 12.2844 8.4504 12.6132 9.15M10.35 7.95V6.75M10.35 15.15C9.30595 15.15 8.41555 14.6496 8.08675 13.95M10.35 15.15V16.35" stroke="#23B9F2" stroke-width="1.5" stroke-linecap="round"/>
</svg>
