<svg width="17" height="15" viewBox="0 0 17 15" fill="none" xmlns="http://www.w3.org/2000/svg">
<path d="M15 13.5H16.5V15H0V13.5H1.5V0.75C1.5 0.551088 1.57902 0.360322 1.71967 0.21967C1.86032 0.0790176 2.05109 0 2.25 0H14.25C14.4489 0 14.6397 0.0790176 14.7803 0.21967C14.921 0.360322 15 0.551088 15 0.75V13.5ZM13.5 13.5V1.5H3V13.5H13.5ZM5.25 6.75H7.5V8.25H5.25V6.75ZM5.25 3.75H7.5V5.25H5.25V3.75ZM5.25 9.75H7.5V11.25H5.25V9.75ZM9 9.75H11.25V11.25H9V9.75ZM9 6.75H11.25V8.25H9V6.75ZM9 3.75H11.25V5.25H9V3.75Z" fill="#23B9F2"/>
</svg>
