<svg width="14" height="13" viewBox="0 0 14 13" fill="none" xmlns="http://www.w3.org/2000/svg">
<path d="M7.875 0H13.875V1.5H7.875V0ZM7.875 5.25H13.875V6.75H7.875V5.25ZM7.875 10.5H13.875V12H7.875V10.5ZM3 11.25C2.17157 11.25 1.5 10.5785 1.5 9.75C1.5 8.92155 2.17157 8.25 3 8.25C3.82843 8.25 4.5 8.92155 4.5 9.75C4.5 10.5785 3.82843 11.25 3 11.25ZM3 12.75C4.65686 12.75 6 11.4068 6 9.75C6 8.09317 4.65686 6.75 3 6.75C1.34314 6.75 0 8.09317 0 9.75C0 11.4068 1.34314 12.75 3 12.75ZM1.875 1.5V3.75H4.125V1.5H1.875ZM0.375 0H5.625V5.25H0.375V0Z" fill="#23B9F2"/>
</svg>
